<?xml version="1.0" encoding="UTF-8" standalone="no"?>
<!-- Created with Inkscape (http://www.inkscape.org/) -->

<svg
   xmlns:dc="http://purl.org/dc/elements/1.1/"
   xmlns:cc="http://creativecommons.org/ns#"
   xmlns:rdf="http://www.w3.org/1999/02/22-rdf-syntax-ns#"
   xmlns:svg="http://www.w3.org/2000/svg"
   xmlns="http://www.w3.org/2000/svg"
   xmlns:sodipodi="http://sodipodi.sourceforge.net/DTD/sodipodi-0.dtd"
   xmlns:inkscape="http://www.inkscape.org/namespaces/inkscape"
   width="20mm"
   height="20mm"
   viewBox="0 0 70.866142 70.866141"
   id="svg2"
   version="1.1"
   inkscape:version="0.91 r13725"
   sodipodi:docname="Logo.svg"
   inkscape:export-filename="/home/jme/Programmierung/ctificate/Logo.png"
   inkscape:export-xdpi="1270"
   inkscape:export-ydpi="1270">
  <defs
     id="defs4">
    <filter
       inkscape:collect="always"
       style="color-interpolation-filters:sRGB"
       id="filter4166"
       x="-0.07422233"
       width="1.1484447"
       y="-0.050351709"
       height="1.1007034">
      <feGaussianBlur
         inkscape:collect="always"
         stdDeviation="0.37276839"
         id="feGaussianBlur4168" />
    </filter>
    <filter
       inkscape:collect="always"
       style="color-interpolation-filters:sRGB"
       id="filter4198"
       x="-0.06"
       width="1.12"
       y="-0.06"
       height="1.12">
      <feGaussianBlur
         inkscape:collect="always"
         stdDeviation="0.5808377"
         id="feGaussianBlur4200" />
    </filter>
    <filter
       inkscape:collect="always"
       style="color-interpolation-filters:sRGB"
       id="filter4251"
       x="-0.060578735"
       width="1.1211575"
       y="-0.059432219"
       height="1.1188644">
      <feGaussianBlur
         inkscape:collect="always"
         stdDeviation="0.2263533"
         id="feGaussianBlur4253" />
    </filter>
    <filter
       inkscape:collect="always"
       style="color-interpolation-filters:sRGB"
       id="filter4285"
       x="-0.026757854"
       width="1.0535157"
       y="-0.021757516"
       height="1.043515">
      <feGaussianBlur
         inkscape:collect="always"
         stdDeviation="0.026772749"
         id="feGaussianBlur4287" />
    </filter>
    <filter
       inkscape:collect="always"
       style="color-interpolation-filters:sRGB"
       id="filter4365"
       x="-0.0124506"
       width="1.0249012"
       y="-0.011580877"
       height="1.0231618">
      <feGaussianBlur
         inkscape:collect="always"
         stdDeviation="0.26866442"
         id="feGaussianBlur4367" />
    </filter>
  </defs>
  <sodipodi:namedview
     id="base"
     pagecolor="#ffffff"
     bordercolor="#666666"
     borderopacity="1.0"
     inkscape:pageopacity="0.0"
     inkscape:pageshadow="2"
     inkscape:zoom="9.1388949"
     inkscape:cx="30.253208"
     inkscape:cy="35.39451"
     inkscape:document-units="px"
     inkscape:current-layer="layer1"
     showgrid="false"
     inkscape:window-width="1871"
     inkscape:window-height="1056"
     inkscape:window-x="1129"
     inkscape:window-y="488"
     inkscape:window-maximized="1" />
  <metadata
     id="metadata7">
    <rdf:RDF>
      <cc:Work
         rdf:about="">
        <dc:format>image/svg+xml</dc:format>
        <dc:type
           rdf:resource="http://purl.org/dc/dcmitype/StillImage" />
        <dc:title></dc:title>
      </cc:Work>
    </rdf:RDF>
  </metadata>
  <g
     inkscape:label="Ebene 1"
     inkscape:groupmode="layer"
     id="layer1"
     transform="translate(0,-981.49606)">
    <path
       sodipodi:nodetypes="cccccc"
       inkscape:connector-curvature="0"
       id="path4331"
       d="m 19.990523,982.31677 41.86045,0 0,55.67753 -51.788237,0 0,-45.4427 c 3.427192,-3.29859 6.675968,-6.76622 9.927787,-10.23483 z"
       style="fill:#000000;fill-opacity:0.39215687;stroke:none;stroke-width:0.11463007;stroke-miterlimit:4;stroke-dasharray:none;stroke-dashoffset:0;stroke-opacity:1;filter:url(#filter4365)" />
    <path
       style="fill:#ffffff;fill-rule:evenodd;stroke:#000000;stroke-width:0.11463007;stroke-linecap:butt;stroke-linejoin:miter;stroke-miterlimit:4;stroke-dasharray:none;stroke-opacity:1"
       d="m 9.5923856,991.45572 0.025585,1.50965 11.2071364,-0.38381 -0.255868,-10.4907 -1.66316,-0.10237 z"
       id="path4259"
       inkscape:connector-curvature="0" />
    <path
       style="fill:#f9f9f9;fill-opacity:1;stroke:#000000;stroke-width:0.11463007;stroke-miterlimit:4;stroke-dasharray:none;stroke-dashoffset:0;stroke-opacity:1"
       d="m 19.443411,981.9885 41.86045,0 0,55.6775 -51.7882375,0 0,-45.44267 c 3.4271925,-3.29859 6.6759685,-6.76622 9.9277875,-10.23483 z"
       id="rect4136"
       inkscape:connector-curvature="0"
       sodipodi:nodetypes="cccccc" />
    <path
       inkscape:connector-curvature="0"
       id="path4144"
       d="m 39.02414,1041.5007 3.482143,-16.7857 5.892857,-0.089 2.678571,17.7679 -5.982143,-5.4465 z"
       style="fill:#000000;fill-opacity:0.39215686;fill-rule:evenodd;stroke:none;stroke-width:0.1;stroke-linecap:butt;stroke-linejoin:miter;stroke-miterlimit:4;stroke-dasharray:none;stroke-opacity:1;filter:url(#filter4166)"
       transform="matrix(1.1463007,0,0,1.1463007,-5.2297289,-143.61827)" />
    <path
       style="fill:#ff2a2a;fill-rule:evenodd;stroke:#000000;stroke-width:0.11463007;stroke-linecap:butt;stroke-linejoin:miter;stroke-miterlimit:4;stroke-dasharray:none;stroke-opacity:1"
       d="m 39.196626,1049.2313 3.991583,-19.2414 6.754986,-0.102 3.070448,20.3673 -6.857335,-6.2433 z"
       id="path4138"
       inkscape:connector-curvature="0" />
    <path
       inkscape:transform-center-y="-0.11363203"
       inkscape:transform-center-x="1.1738495"
       d="m 55.184853,1026.5899 -2.125247,1.105 -1.315038,1.9048 -2.386342,0.2076 -1.943858,1.2565 -2.284137,-0.7214 -2.276742,0.417 -1.834193,-1.5406 -2.263014,-0.486 -1.105009,-2.1253 -1.904762,-1.315 -0.207599,-2.3863 -1.256527,-1.9439 0.721418,-2.2841 -0.416998,-2.2768 1.540604,-1.8342 0.486016,-2.263 2.125248,-1.105 1.315038,-1.9047 2.386342,-0.2076 1.943858,-1.2566 2.284137,0.7214 2.276742,-0.417 1.834193,1.5407 2.263013,0.486 1.10501,2.1252 1.904762,1.3151 0.207598,2.3863 1.256527,1.9439 -0.721417,2.2841 0.416998,2.2767 -1.540604,1.8342 z"
       inkscape:randomized="0"
       inkscape:rounded="0"
       inkscape:flatsided="false"
       sodipodi:arg2="0.85585359"
       sodipodi:arg1="0.65569563"
       sodipodi:r2="10.922435"
       sodipodi:r1="11.715157"
       sodipodi:cy="1019.4471"
       sodipodi:cx="45.899139"
       sodipodi:sides="16"
       id="path4142"
       style="fill:#000000;fill-opacity:0.39303481;stroke:none;stroke-width:0.1;stroke-miterlimit:4;stroke-dasharray:none;stroke-dashoffset:0;stroke-opacity:1;filter:url(#filter4198)"
       sodipodi:type="star"
       transform="matrix(1.1463007,0,0,1.1463007,-5.2297289,-143.61827)" />
    <path
       sodipodi:type="star"
       style="fill:#ff2a2a;fill-opacity:1;stroke:#000000;stroke-width:0.11463007;stroke-miterlimit:4;stroke-dasharray:none;stroke-dashoffset:0;stroke-opacity:1"
       id="path4140"
       sodipodi:sides="16"
       sodipodi:cx="46.668053"
       sodipodi:cy="1024.4629"
       sodipodi:r1="13.429093"
       sodipodi:r2="12.520395"
       sodipodi:arg1="0.65569563"
       sodipodi:arg2="0.85585359"
       inkscape:flatsided="false"
       inkscape:rounded="0"
       inkscape:randomized="0"
       d="m 57.312274,1032.6508 -2.436174,1.2666 -1.507428,2.1835 -2.735466,0.2379 -2.228245,1.4404 -2.618308,-0.827 -2.609832,0.478 -2.102537,-1.766 -2.594094,-0.5571 -1.266673,-2.4362 -2.18343,-1.5074 -0.23797,-2.7355 -1.440359,-2.2282 0.826962,-2.6183 -0.478005,-2.6098 1.765996,-2.1026 0.55712,-2.5941 2.436174,-1.2666 1.507429,-2.1835 2.735466,-0.2379 2.228245,-1.4404 2.618308,0.827 2.609831,-0.478 2.102537,1.7659 2.594094,0.5572 1.266674,2.4361 2.18343,1.5075 0.23797,2.7354 1.440358,2.2283 -0.826962,2.6183 0.478006,2.6098 -1.765997,2.1026 z"
       inkscape:transform-center-x="1.1738456"
       inkscape:transform-center-y="-0.1136543" />
    <path
       sodipodi:nodetypes="cccc"
       inkscape:connector-curvature="0"
       id="path4205"
       d="m 13.10896,991.09897 8.683036,0 0,-8.88393 c -2.989953,3.32833 -5.773714,5.89824 -8.683036,8.88393 z"
       style="fill:#000000;fill-opacity:0.39215686;fill-rule:evenodd;stroke:none;stroke-width:0.1;stroke-linecap:butt;stroke-linejoin:bevel;stroke-miterlimit:4;stroke-dasharray:none;stroke-opacity:1;filter:url(#filter4251)"
       transform="matrix(1.1463007,0,0,1.1463007,-5.2297289,-143.61827)" />
    <path
       style="fill:#ffffff;fill-rule:evenodd;stroke:#000000;stroke-width:0.11463007;stroke-linecap:butt;stroke-linejoin:bevel;stroke-miterlimit:4;stroke-dasharray:none;stroke-opacity:1"
       d="m 9.490037,992.17216 9.953371,0 0,-10.18366 z"
       id="path4203"
       inkscape:connector-curvature="0"
       sodipodi:nodetypes="cccc" />
    <path
       style="fill:#000000;fill-opacity:0.39215686;fill-rule:evenodd;stroke:none;stroke-width:0.1;stroke-linecap:butt;stroke-linejoin:bevel;stroke-miterlimit:4;stroke-dasharray:none;stroke-opacity:1;filter:url(#filter4251)"
       d="m 13.325892,993.79077 8.683036,0 0,-8.88393 c -2.989953,3.32833 -5.773714,5.89824 -8.683036,8.88393 z"
       id="path4255"
       inkscape:connector-curvature="0"
       sodipodi:nodetypes="cccc"
       transform="matrix(1.0753354,0,0,1.0753354,-4.4421159,-76.872733)" />
    <path
       sodipodi:nodetypes="cccc"
       inkscape:connector-curvature="0"
       id="path4257"
       d="m 9.599652,991.49765 9.337177,0 0,-9.5532 z"
       style="fill:#ffffff;fill-rule:evenodd;stroke:#000000;stroke-width:0.10753354;stroke-linecap:butt;stroke-linejoin:bevel;stroke-miterlimit:4;stroke-dasharray:none;stroke-opacity:1" />
    <rect
       transform="matrix(0.88393018,0.71296715,-0.70580184,0.89290383,-5.6970235,-143.58458)"
       ry="0.083705358"
       y="760.23907"
       x="632.58679"
       height="3.7054095"
       width="0.20089205"
       id="rect4267"
       style="fill:#000000;fill-opacity:0.39215686;stroke:none;stroke-width:0.1;stroke-linejoin:bevel;stroke-miterlimit:4;stroke-dasharray:none;stroke-dashoffset:0;stroke-opacity:1;filter:url(#filter4285)" />
    <rect
       style="fill:#666666;fill-opacity:1;stroke:none;stroke-width:0.1;stroke-linejoin:bevel;stroke-miterlimit:4;stroke-dasharray:none;stroke-dashoffset:0;stroke-opacity:1"
       id="rect4261"
       width="0.23028269"
       height="4.2475138"
       x="628.5061"
       y="760.15802"
       ry="0.095951512"
       transform="matrix(0.78144734,0.6239712,-0.6239712,0.78144734,0,0)" />
    <rect
       transform="matrix(0.78144734,0.6239712,-0.6239712,0.78144734,0,0)"
       ry="0.095951512"
       y="760.2063"
       x="628.51025"
       height="4.1504855"
       width="0.043173317"
       id="rect4263"
       style="fill:#b3b3b3;fill-opacity:1;stroke:none;stroke-width:0.1;stroke-linejoin:bevel;stroke-miterlimit:4;stroke-dasharray:none;stroke-dashoffset:0;stroke-opacity:1" />
    <rect
       style="fill:#333333;fill-opacity:1;stroke:none;stroke-width:0.1;stroke-linejoin:bevel;stroke-miterlimit:4;stroke-dasharray:none;stroke-dashoffset:0;stroke-opacity:1"
       id="rect4265"
       width="0.030255018"
       height="4.1599665"
       x="628.69427"
       y="760.18958"
       ry="0.095951512"
       transform="matrix(0.78144734,0.6239712,-0.6239712,0.78144734,0,0)" />
    <path
       style="fill:#333333;fill-opacity:1;stroke:none;stroke-width:0.2;stroke-linejoin:bevel;stroke-miterlimit:4;stroke-dasharray:none;stroke-dashoffset:0;stroke-opacity:1"
       id="path4289"
       d="m 24.211635,988.34545 c -0.04997,0.0219 -0.0993,0.0454 -0.149918,0.0658 -0.161285,0.065 -0.217958,0.0716 -0.373993,0.15553 -0.05852,0.0314 -0.22656,0.13882 -0.168715,0.10615 1.628192,-0.91993 2.157928,-1.3141 1.486535,-0.8255 -0.239714,0.17978 -0.381842,0.43956 -0.507093,0.70494 -0.09598,0.27892 -0.150519,0.57095 -0.216248,0.85824 -0.105563,0.38967 -0.149782,0.79017 -0.174998,1.19184 0.01974,0.10913 -0.102479,0.58284 0.07342,0.62805 0.02422,0.006 0.05,-0.001 0.075,-0.002 0.599107,-0.005 1.170755,-0.25467 1.721646,-0.46495 0.154833,-0.0706 0.310693,-0.13903 0.464499,-0.21186 0.233579,-0.11061 0.720308,-0.3539 0.950336,-0.47525 0.142575,-0.0752 0.56343,-0.31344 0.424301,-0.23202 -1.486759,0.85268 -1.859221,1.07472 -1.130553,0.64353 0.658023,-0.37875 1.307746,-0.77229 1.974065,-1.13623 0.187529,-0.10248 0.265367,0.19685 0.259492,0.3163 -0.004,0.0812 -0.08647,0.29384 -0.110813,0.36229 -0.125191,0.35919 -0.196796,0.73361 -0.23896,1.11082 -3.66e-4,0.0158 0.01304,0.0403 -0.0011,0.0472 -1.825304,0.89708 -2.00598,1.53085 -1.913618,0.37275 0.0891,-0.48261 0.310075,-0.92853 0.49972,-1.37783 0.184181,-0.427 0.403717,-0.83669 0.541115,-1.2822 0.05855,-0.20838 -0.0072,-0.34933 -0.235174,-0.29962 -0.03797,-0.0295 -0.104898,0.007 -0.145594,-0.0201 -0.02027,-0.0135 -0.148227,-0.1654 -0.111398,-0.19047 1.795837,-1.22262 1.236093,-1.44369 2.03336,-1.05519 0.657602,0.25125 1.30324,0.53331 1.987813,0.70691 0.260147,0.0659 0.524447,0.11428 0.786671,0.17146 1.482099,0.34808 3.003674,0.4486 4.503202,0.68813 0.07138,0.0182 0.15062,0.0172 0.214155,0.0546 0.06714,0.0394 0.171548,0.25599 0.06838,0.32241 -1.105714,0.7119 -1.503328,0.9626 -2.457163,1.23404 -0.524774,0.13427 -1.067222,0.16488 -1.605963,0.19081 -0.254371,-0.0146 -0.526209,0.0597 -0.776768,-0.0103 -0.05338,-0.0149 -0.193635,-0.0879 -0.247327,-0.11481 -0.280996,-0.22177 -0.575064,-0.21655 -0.895674,-0.0931 -0.08518,0.0315 -0.172108,0.0588 -0.255553,0.0947 -0.09722,0.0418 -0.192799,0.0878 -0.285818,0.13828 -0.09228,0.0501 -0.361099,0.21437 -0.269468,0.16311 2.675985,-1.49698 1.729926,-1.09266 1.186156,-0.58092 -0.02654,0.033 -0.05306,0.0659 -0.0796,0.0989 -0.0047,-6.7e-4 -0.01795,5.2e-4 -0.01398,-0.002 0.165314,-0.10603 0.176702,-0.0491 0.452188,-0.0528 0.677357,-0.009 0.40646,-9.9e-4 1.161791,-0.062 0.958541,-0.0867 1.916684,-0.27373 2.834774,-0.56649 0.03731,-0.0119 0.740694,-0.26988 0.835243,-0.30451 0.01521,-0.007 0.332335,-0.14953 0.399412,-0.14793 0.302889,0.007 0.231538,0.50289 0.216405,0.67385 -0.08941,0.6664 -0.135335,1.33559 -0.106079,2.00734 0.03487,0.15174 0.01822,0.35468 0.112246,0.49241 0.0033,0.005 0.011,-0.003 0.01652,-0.006 -0.01101,-0.0433 0.0069,-0.14982 -0.03308,-0.1299 -0.611302,0.3047 -1.181141,0.6863 -1.771711,1.02946 0.206657,-0.29701 0.243822,-0.67232 0.283997,-1.02245 0.03387,-0.45566 0.06909,-0.91435 -0.0078,-1.36674 -0.09913,-0.46898 -0.297517,-0.63267 -0.745687,-0.7462 -0.859604,-0.0382 -1.859662,0.77884 1.516586,-1.1944 0.06097,-0.0357 0.140765,0.0117 0.211256,0.0159 0.11236,0.007 0.224848,0.0115 0.337271,0.0172 0.866362,0.0572 1.72563,0.0141 2.566182,-0.2066 0.516844,-0.24945 0.969903,-0.39141 1.540599,-0.44629 0.703982,-0.0673 1.407125,-0.028 2.110296,0.0205 0.185634,0.0438 0.481731,0.0313 0.631674,0.18409 0.04659,0.0474 0.14219,0.2583 0.04842,0.32095 -0.628921,0.42016 -1.306843,0.76188 -1.960265,1.14282 -0.599947,0.13921 -1.185192,0.33107 -1.781555,0.48394 -0.152876,0.005 -0.61549,0.28598 -0.757809,0.19118 -0.09602,-0.064 -0.111443,-0.16597 -0.143011,-0.26395 -6.85e-4,-0.31947 0.0058,-0.63403 -0.02711,-0.95273 -0.0635,-0.29991 -0.135478,-0.59664 -0.175075,-0.90113 -0.02364,-0.26452 -0.16428,-0.49225 -0.19128,-0.75459 0.281342,-2.18628 1.848038,-1.22549 2.688837,-0.87715 0.445856,0.20452 0.935445,0.2784 1.388361,0.46352 0.279666,0.11429 0.408015,0.19687 0.666861,0.34281 0.486634,0.29621 0.790252,0.7183 0.955119,1.25431 0.08679,0.3348 0.08225,0.6809 0.07975,1.02379 -0.01914,0.3179 -0.01178,0.61985 0.08151,0.92469 0.168769,0.33123 0.504801,0.39109 0.840613,0.44975 0.239244,0.0212 0.517454,0.0896 0.745701,-0.028 0.04958,-0.0256 0.17999,-0.1307 0.130952,-0.1042 -0.565187,0.30619 -1.120976,0.62942 -1.681466,0.94414 0.315811,-0.37369 0.358452,-0.87578 0.401974,-1.34413 -0.0072,-0.40292 0.107534,-0.78536 0.20341,-1.17148 0.05438,-0.28066 -0.06473,-0.55176 -0.102205,-0.82769 0.02416,-0.87548 1.288588,-1.00415 1.953944,-1.39345 0.134757,-0.0789 0.318767,-0.0916 0.468158,-0.11538 0.489558,-0.06 0.988548,-0.0853 1.465636,0.0528 0.503229,0.19472 0.634163,0.72176 0.762251,1.19506 0.04051,0.0864 0.187955,0.9185 0.365098,0.74558 0.09973,-0.0445 0.163091,0.0763 0.241775,0.11989 0.0527,0.0292 0.09079,0.0358 0.149168,0.052 0.243074,0.11567 0.50636,0.14892 0.750457,0.26282 0.346357,0.16258 0.620026,0.43532 0.890872,0.6987 0.28262,0.3332 0.637838,0.59591 0.983818,0.85934 0.160556,0.10615 0.326213,0.22211 0.513506,0.27774 0.04437,0.0132 0.09142,0.0291 0.137126,0.0218 0.03564,-0.006 0.122942,-0.0755 0.09129,-0.0582 -0.584969,0.32037 -1.167627,0.64494 -1.751439,0.96742 0.137979,-0.0778 0.205687,-0.345 0.05582,-0.44289 -0.01777,-0.001 -0.03555,-0.003 -0.05331,-0.005 0,0 1.780819,-1.17328 1.780819,-1.17328 l 0,0 c 0.03159,0.0228 0.06317,0.0456 0.09476,0.0684 0.171665,0.21696 0.203691,0.51257 0.100015,0.76885 -1.684177,0.95684 -1.598302,1.515 -2.746332,0.69699 -0.353016,-0.26914 -0.707221,-0.54262 -1.003009,-0.87598 -0.257252,-0.24502 -0.518202,-0.49797 -0.855752,-0.62786 -0.249198,-0.0903 -0.511822,-0.1391 -0.754639,-0.2489 -0.131166,-0.0577 -0.235083,-0.14194 -0.378974,-0.14381 -0.319357,-0.2182 -0.353976,-0.61687 -0.45593,-0.96304 -0.106091,-0.40629 -0.193642,-0.86908 -0.648077,-1.00174 -0.468305,-0.0928 -0.949218,-0.0636 -1.416032,0.03 -0.158891,0.0445 -0.181144,0.0429 -0.323794,0.11085 -0.04,0.0191 -0.154435,0.087 -0.11652,0.0641 0.568321,-0.34398 1.142603,-0.67815 1.707828,-1.02718 0.02648,-0.0164 -0.06543,0.008 -0.08919,0.0276 -0.02149,0.0182 -0.02304,0.0514 -0.03456,0.077 0.0022,0.30248 0.166961,0.58441 0.125074,0.89085 -0.08988,0.38237 -0.242036,0.7522 -0.234126,1.15164 -0.04201,0.49874 -0.07885,1.01881 -0.328229,1.46418 -1.377287,0.85927 -1.592535,1.44035 -2.874067,1.20628 -0.407305,-0.0957 -0.775001,-0.23468 -0.969125,-0.63449 -0.106881,-0.33486 -0.1421,-0.63192 -0.109781,-0.98428 0.003,-0.32458 0.01317,-0.65249 -0.04729,-0.97299 -0.126659,-0.49349 -0.398219,-0.86662 -0.843957,-1.12935 -0.263773,-0.14636 -0.350728,-0.20602 -0.638149,-0.31698 -0.462804,-0.17866 -0.959403,-0.25623 -1.413711,-0.46011 -0.08808,-0.0347 -0.391502,-0.15735 -0.495549,-0.18814 -0.05289,-0.0157 -0.106996,-0.032 -0.162141,-0.033 -0.02804,-5.3e-4 -0.102972,0.0432 -0.07914,0.0285 1.714953,-1.06274 2.417922,-1.22501 1.690787,-1.05037 -0.07396,0.21569 0.171758,0.49191 0.16358,0.72671 0.03288,0.30676 0.09777,0.60645 0.173586,0.90536 0.03281,0.30935 0.05985,0.61548 0.02998,0.92655 -0.0025,0.0125 0.003,0.0303 -0.0076,0.0375 -0.0077,0.006 -0.01583,-0.021 -0.0084,-0.0266 0.01878,-0.0141 0.04546,-0.0116 0.06802,-0.0181 0.208781,-0.0596 0.414311,-0.13006 0.625422,-0.18154 0.597457,-0.15798 1.199188,-0.31949 1.77669,-0.5387 -0.553033,0.3294 -1.124877,0.6291 -1.659097,0.98821 -0.268361,0.18041 0.149682,0.037 0.145904,0.0343 -0.155156,-0.10993 -0.376439,-0.1 -0.5519,-0.13453 -0.696325,-0.0524 -1.394888,-0.0749 -2.089745,0.0161 -0.547468,0.0884 -0.994594,0.27608 -1.514919,0.45382 -0.858138,0.1788 -1.728846,0.20204 -2.603292,0.16459 -0.121247,-0.003 -0.242604,-0.003 -0.363743,-0.009 -0.07741,-0.003 -0.287252,0.0338 -0.231651,-0.0202 1.214817,-1.17988 1.019191,-1.40935 1.957732,-1.21124 0.492528,0.1782 0.737767,0.4238 0.861238,0.94435 0.09047,0.46923 0.06415,0.94314 0.03557,1.41826 -0.03104,0.37521 -0.07429,0.75481 -0.212271,1.10815 -1.534738,0.95337 -1.973146,1.85844 -2.136403,0.41985 -0.02146,-0.67602 0.01632,-1.3498 0.07897,-2.02318 0.034,-0.38402 0.148855,-0.37192 -0.142721,-0.2699 -0.07539,0.0264 -0.150474,0.0536 -0.225712,0.0805 -1.184553,0.39864 -2.405854,0.68361 -3.65358,0.79344 -0.347118,0.0307 -1.290736,0.14668 -1.642199,0.0649 -0.129675,-0.0301 -0.294344,-0.13241 -0.279444,-0.29169 0.005,-0.0534 0.04973,-0.0951 0.07458,-0.14274 0.642636,-0.72546 1.503104,-1.02789 2.381425,-1.53993 0.269919,-0.15735 0.558952,-0.27983 0.858828,-0.36701 0.389446,-0.0672 0.662853,-0.009 0.997596,0.20013 0.300086,0.12143 0.628892,0.0573 0.944771,0.0573 0.530638,-0.028 1.063509,-0.0737 1.574304,-0.23032 0.08047,-0.0254 0.16139,-0.0494 0.241424,-0.0762 0.07607,-0.0254 0.294838,-0.12285 0.22682,-0.0804 -0.543269,0.33955 -1.13429,0.60341 -1.656812,0.97408 -0.07528,0.0534 0.181672,0.10019 0.17524,0.0978 -0.05543,-0.0212 -0.111902,-0.0397 -0.167846,-0.0595 -1.466714,-0.31439 -2.969488,-0.42424 -4.436597,-0.74072 -0.272098,-0.0561 -0.546061,-0.10374 -0.816295,-0.16817 -0.706853,-0.16857 -1.382045,-0.43653 -2.078032,-0.63924 -0.805595,0.0365 0.01929,0.0173 1.63435,-1.10186 0.05443,-0.0377 -0.161748,-0.0965 -0.01191,-0.0794 0.02798,0.003 0.05601,0.006 0.08401,0.009 0.30033,0.0944 0.467912,0.30306 0.408706,0.62927 -0.125118,0.46162 -0.34717,0.87901 -0.54575,1.3119 -0.182604,0.43154 -0.387351,0.85875 -0.506152,1.31324 -0.170195,1.16535 0.706818,0.11245 -1.917165,1.48632 -0.01147,0.006 0.01439,-0.0216 0.02157,-0.0323 0.08985,-0.38085 0.119983,-0.77523 0.242587,-1.14909 0.02187,-0.0673 0.06942,-0.2367 0.115583,-0.30744 0.0096,-0.0147 0.02661,-0.0336 0.04365,-0.0295 0.01836,0.005 0.03848,0.0303 0.03083,0.0476 -0.01066,0.0241 -0.04604,0.0257 -0.06905,0.0386 0.537144,-0.31179 1.074287,-0.62357 1.611431,-0.93535 -1.394602,0.8112 -2.772922,1.66732 -4.26735,2.2871 -0.584838,0.21651 -1.237039,0.52836 -1.873832,0.38778 -0.361606,-0.224 -0.279237,-0.48825 -0.267702,-0.86622 0.02431,-0.41043 0.05475,-0.82273 0.156603,-1.22259 0.07039,-0.29326 0.120616,-0.59029 0.191772,-0.88309 0.103006,-0.29494 0.262926,-0.58259 0.475715,-0.81126 0.831683,-0.70124 1.830744,-1.20552 2.845046,-1.59109 0,0 -1.679938,1.30515 -1.679938,1.30515 z"
       inkscape:connector-curvature="0" />
    <path
       style="fill:#333333;fill-opacity:1;stroke:none;stroke-width:0.2;stroke-linejoin:bevel;stroke-miterlimit:4;stroke-dasharray:none;stroke-dashoffset:0;stroke-opacity:1"
       id="path4291"
       d="m 13.020866,999.23085 c -0.173835,-1.36638 0.182543,-0.94057 1.909867,-1.98819 0.518555,0.21253 0.918712,0.63739 1.319371,1.0162 0.426535,0.40144 0.874364,0.80469 1.39005,1.0896 0.770346,0.15945 0.261869,0.0355 -1.769858,1.08554 -0.0011,6e-4 -0.09696,-0.1112 -0.176365,-0.1844 -0.120272,-0.1112 -0.17644,-0.1463 -0.31222,-0.2468 -0.36678,-0.30369 -0.777833,-0.50314 -1.236492,-0.61926 -0.05648,0 -0.113048,-0.0138 -0.169434,-0.0115 -0.103695,0.0115 -0.187983,0.0481 -0.274894,0.10202 -0.0444,0.0275 -0.17259,0.11669 -0.127088,0.0917 1.634052,-0.91404 2.176061,-1.36326 1.545516,-0.85348 -0.259613,0.27221 -0.422374,0.61826 -0.502687,0.98244 -0.02352,0.1818 -0.07511,0.70374 0.232785,0.66814 0.577957,-0.48554 0.0049,0 -1.662424,0.897 -0.04591,0.024 0.08503,-0.061 0.124819,-0.094 0.04972,-0.042 0.09636,-0.087 0.143379,-0.1326 0.08368,-0.08 0.256769,-0.2551 0.334762,-0.3334 0.863978,-0.83881 1.871412,-1.50653 3.010274,-1.94326 0.437882,-0.11394 0.700599,0.18835 0.990168,0.46229 0.189037,0.11841 0.36034,0.37495 0.600282,0.39949 0.08348,0.0115 0.209183,-0.0596 0.276524,-0.0894 0.79244,-0.46013 -0.72504,0.42173 -1.482137,0.8409 -0.06726,0.038 0.129615,-0.082 0.190557,-0.13 0.203877,-0.1568 0.376568,-0.34786 0.551815,-0.53471 0.229523,-0.20507 0.298419,-0.52363 0.495451,-0.75078 0.522741,-0.60273 1.387598,-0.78819 2.090658,-1.16534 0.447362,0.0808 0.812794,0.3468 1.185573,0.58714 0.06597,0.0476 0.130452,0.0973 0.197897,0.14282 0.393976,0.26569 -0.0085,-0.0159 0.268211,0.16071 0.0129,0.008 0.04809,0.0214 0.03514,0.0296 -1.861566,1.17288 -1.238534,1.48308 -1.987335,1.05344 -0.422499,-0.24199 -0.884886,-0.39674 -1.345848,-0.5469 -0.331235,-0.0895 -0.697685,-0.30817 -1.053451,-0.22876 2.083918,-1.44442 1.240846,-1.22663 2.757849,-1.20341 0.439259,0.0205 0.892739,0.0382 1.322786,0.13791 0.34057,0.11785 0.57709,0.33562 0.634322,0.69526 -0.0093,0.33729 -0.254982,0.58283 -0.395554,0.87147 -0.07389,0.23901 -0.01615,-0.055 -0.03997,-0.0436 -1.047118,0.52386 -2.373586,1.37423 -1.621504,0.89413 0.953782,-0.76253 1.983653,-1.29549 3.142744,-1.56854 0.425081,-0.0679 0.661375,-0.0118 0.77205,0.42223 0.0303,0.26938 0.0017,0.53784 0.07368,0.80172 0.114458,0.21469 0.34258,0.23329 0.554805,0.16949 0.481299,-0.22142 0.973692,-0.40953 1.465564,-0.60703 0.670487,-0.29059 1.975645,-0.99156 -0.976937,0.60803 -0.07674,0.041 0.144125,-0.1 0.209469,-0.1571 0.153724,-0.13616 0.145082,-0.15473 0.23513,-0.32553 0.07898,-0.33804 -0.07873,-0.6689 -0.309863,-0.9112 -0.208771,-0.24747 -0.467173,-0.38127 -0.788562,-0.39249 -0.232554,0.0239 -0.491003,-0.0233 -0.713553,0.0672 -0.04187,0.0171 -0.155662,0.0919 -0.116235,0.0698 0.57371,-0.32155 1.146092,-0.64546 1.719139,-0.96819 -0.269738,0.27063 -0.06918,0.66247 0.06394,0.95396 0.244984,0.43525 0.546196,0.65421 1.020171,0.78294 0.41012,0.0653 0.836741,0.12105 1.250134,0.0585 0.363368,-0.0951 0.726621,-0.0665 1.095447,-0.0378 0.392297,0.0115 0.77706,0.0699 1.164422,0.12621 0.303983,0.0653 0.640482,-0.0115 0.910971,0.16082 0.168828,0.19614 0.07774,0.37461 0.03076,0.58806 0.122831,0.1286 0.172696,0.2978 0.213351,0.4664 0.169165,1.0527 0.298058,0.2624 -1.755152,1.3286 0.256026,-0.1521 0.142633,-0.792 0.110079,-1.0329 -0.0159,-0.3426 -0.375907,-0.8578 -0.200505,-1.18062 0.04156,-0.0768 0.118113,-0.12793 0.17717,-0.19189 0.725579,-0.37713 1.428858,-0.80064 2.176738,-1.13135 0.137083,-0.0606 1.06003,-0.0924 1.157793,-0.0957 0.638604,-0.0223 1.273676,-0.0143 1.911917,0.0103 0.187562,0.0103 0.375389,0.0163 0.562689,0.0305 0.403107,0.0306 0.549446,0.0526 0.935383,0.12237 0.266033,0.048 0.523564,0.13315 0.793977,0.13528 0.643713,-0.47049 -0.158985,0.12081 -1.7019,0.95578 -0.01685,0.0115 0.01741,-0.0378 0.01183,-0.0562 -0.0089,-0.0298 -0.03232,-0.0527 -0.05224,-0.0768 -0.08887,-0.10546 -0.133713,-0.1316 -0.245157,-0.22193 -0.561163,-0.31701 -1.239463,-0.35568 -1.868257,-0.42339 -0.353085,-0.0343 -0.706646,-2.1e-4 -1.059563,0.003 -0.169492,0.002 -0.293051,-0.0343 -0.440122,0.0541 0.591222,-0.333 1.180705,-0.6691 1.773664,-0.99898 0.02105,-0.0117 -0.04486,0.0234 -0.05728,0.0441 -0.01785,0.0297 -0.02285,0.0656 -0.02923,0.0996 -0.02523,0.13448 -0.01749,0.27709 -0.01713,0.41299 -0.0167,0.3435 0.08501,0.47429 0.359422,0.66118 0.519388,0.17652 1.067945,0.25791 1.603461,0.37907 0.356611,0.11555 0.800422,0.047 1.104116,0.29197 0.13926,0.28471 0.0404,0.60871 0.0088,0.91011 -0.06689,0.2044 0.02686,0.4543 -0.04762,0.6528 -0.171355,-0.076 0.07233,-0.1969 0.123097,-0.2314 -0.587623,0.3347 -1.174507,0.6707 -1.76287,1.0042 -0.02262,0.013 0.04295,-0.03 0.06552,-0.042 0.634438,-0.3619 1.262174,-0.7361 1.905423,-1.082 0.05699,-0.031 0.125983,-0.03 0.188975,-0.045 0,0 -1.66642,1.2921 -1.66642,1.2921 l 0,0 c -1.622302,0.6626 5.75766,-3.16042 -0.402213,0.1931 -0.203803,0.049 -0.39227,0.014 -0.417095,-0.2416 0.02242,-0.013 0.06038,10e-4 0.07506,-0.021 0.05697,-0.083 0.004,-0.4353 0.04443,-0.5383 0.02165,-0.2361 0.03723,-0.4756 0.08736,-0.7073 -0.311125,-0.1647 -0.697624,-0.1268 -1.024817,-0.2465 -0.558894,-0.1302 -1.146207,-0.188 -1.668223,-0.4357 -0.285411,-0.2121 -0.486436,-0.45494 -0.463493,-0.83012 -0.02836,-1.28934 -0.03174,-0.73738 1.905443,-1.81984 0.496267,-0.0121 0.995648,0.0257 1.490922,0.048 0.67202,0.0774 1.397157,0.10889 1.976091,0.49583 0.119065,0.0988 0.193146,0.14875 0.28788,0.26892 0.629136,0.79803 -0.935687,1.58222 -1.813688,1.47378 -0.728926,-0.16003 -1.454289,-0.3377 -2.208597,-0.32842 -0.838591,-0.0287 -1.695192,-0.0527 -2.52929,0.0619 -0.180369,0.0241 -0.670567,0.22663 -0.53619,0.10432 0.413328,-0.37783 0.94289,-0.60433 1.414335,-0.9065 -0.06152,0.0268 -0.28621,0.0942 -0.315877,0.20065 -0.06273,0.22486 0.249164,0.71547 0.239632,0.96743 0.06568,0.41242 0.118738,0.81482 0.02572,1.22852 -1.574607,0.8312 -1.955206,1.699 -2.106688,0.4616 -0.0392,-0.1904 -0.122718,-0.335 -0.236165,-0.4913 -0.02822,-0.1563 0.01481,-0.2051 0.08107,-0.3353 0.01818,-0.035 0.01348,-0.04 0.0045,-0.065 -0.274173,-0.087 -0.579072,-0.041 -0.857744,-0.1149 -0.383645,-0.059 -0.767888,-0.093 -1.15554,-0.1123 -0.363602,-0.023 -0.717715,0 -1.077058,0.065 -0.432832,0.013 -0.869136,-0.025 -1.289503,-0.1325 -0.505948,-0.1806 -0.843137,-0.4597 -1.111631,-0.93127 -0.171845,-0.36281 -0.373064,-0.78544 -0.197848,-1.18261 1.427885,-0.85846 1.536599,-1.29003 2.797465,-1.19463 0.351613,0.0713 0.648005,0.23366 0.876943,0.51664 0.263051,0.31441 0.443481,0.7036 0.409523,1.12112 -0.07193,0.24568 -0.173521,0.47216 -0.406284,0.61441 -0.852295,0.52111 -1.683379,1.06854 -2.610687,1.43434 -0.50333,0.2035 -1.000122,0.4475 -1.52599,0.5801 -0.312236,-0.013 -0.580651,-0.1124 -0.719484,-0.4143 -0.08209,-0.2673 -0.08879,-0.5373 -0.08516,-0.815 -0.0049,-0.037 -0.0077,-0.1124 -0.03512,-0.1477 -0.104783,-0.13387 -0.407333,-0.011 -0.5267,0 -0.25929,0.07 -0.514644,0.1442 -0.76176,0.2512 -0.0735,0.032 -0.285194,0.1451 -0.216629,0.1043 1.812372,-1.09358 2.086529,-1.32033 1.471526,-0.83498 -0.67309,0.50548 -0.608332,0.46498 -2.047648,1.17748 -0.09943,0.049 -0.223524,-0.2 -0.218696,-0.2687 0.0023,-0.033 0.02027,-0.063 0.03039,-0.094 0.09796,-0.2928 0.307645,-0.50975 0.435649,-0.786 0.02725,-0.27959 -0.250474,-0.40029 -0.48393,-0.46305 -0.424638,-0.0744 -0.857594,-0.11222 -1.288609,-0.11314 -0.276426,-0.002 -0.5534,-0.003 -0.829454,-0.0196 -0.850965,-0.0509 0.03604,-0.14937 1.505021,-1.26522 0.354813,0.092 0.716148,0.16151 1.055995,0.30799 0.469954,0.16314 0.93928,0.32763 1.382229,0.55682 0.776381,0.32677 0.167211,0.0277 -1.613527,1.23241 -0.02991,0.0206 -0.05446,-0.0481 -0.08376,-0.0688 -0.05373,-0.039 -0.108658,-0.0757 -0.162866,-0.11349 -0.06362,-0.0447 -0.127065,-0.0894 -0.190597,-0.13411 -0.333854,-0.20932 -0.690663,-0.48731 -1.107091,-0.43882 0.563691,-0.33117 1.127382,-0.66232 1.691075,-0.99348 -0.115323,0.0463 -0.201131,0.0645 -0.284191,0.16926 -0.153882,0.19405 -0.184275,0.47178 -0.37168,0.64579 -0.79974,0.88009 -1.625741,1.56471 -2.875002,1.91751 -0.06222,0 -0.124353,0.021 -0.186667,0.017 -0.32424,-0.023 -0.561763,-0.3217 -0.803451,-0.5012 -0.288076,-0.2602 -0.445319,-0.43237 -0.847961,-0.2644 -0.719691,0.3534 -0.408481,0.2062 1.401445,-0.83833 0.07326,-0.0424 -0.145846,0.086 -0.213748,0.13676 -0.166829,0.12391 -0.251388,0.22651 -0.406099,0.36578 -0.06509,0.0585 -0.133504,0.11349 -0.200256,0.16988 -0.706742,0.68801 -1.561279,1.86141 -2.641204,1.66321 -0.34064,-0.2014 -0.4054,-0.5687 -0.364828,-0.9424 0.05393,-0.4034 0.208932,-0.76436 0.439314,-1.10012 0.609136,-0.68976 0.113518,-0.15521 2.058916,-1.28103 0.204423,-0.1183 0.441739,-0.1026 0.660855,-0.0447 0.46731,0.14912 0.890187,0.37775 1.275921,0.68291 0.04148,0.0304 0.590166,0.44741 0.551876,0.4771 -1.666484,1.29195 -1.171487,1.57035 -1.84953,1.13945 -0.483817,-0.3487 -0.95002,-0.72632 -1.37695,-1.143 -0.217244,-0.19785 -0.809816,-0.79232 -1.114183,-0.81132 -0.03488,-0.002 -0.0656,0.0241 -0.0984,0.0362 0.568629,-0.35002 1.137259,-0.70005 1.705888,-1.05008 -0.06322,0.0697 -0.108222,0.10271 -0.128299,0.20454 -0.03293,0.16699 0.03261,0.34038 0.05161,0.5041 0,0 -1.880009,0.99737 -1.880009,0.99737 z"
       inkscape:connector-curvature="0" />
    <path
       style="fill:#333333;fill-opacity:1;stroke:none;stroke-width:0.2;stroke-linejoin:bevel;stroke-miterlimit:4;stroke-dasharray:none;stroke-dashoffset:0;stroke-opacity:1"
       id="path4293"
       d="m 38.631073,1000.2814 c -0.193832,-0.2399 -0.445033,-0.70551 -0.715386,-0.85018 0.173153,0.76408 -0.02237,0.0115 1.8306,-1.00451 0.02304,-0.0126 0.0068,0.0523 0.01319,0.0777 0.01123,0.0446 0.02462,0.0886 0.03957,0.1321 0.03707,0.10775 0.0797,0.21358 0.117256,0.32118 0.150083,0.39167 0.163681,0.70369 0.03416,1.09939 0.02531,0.018 -0.313153,0.5898 -0.177251,0.3615 0.03865,-0.013 0.07624,-0.029 0.115948,-0.038 0.226413,-0.049 0.449733,-0.08 0.673115,-0.1489 0.23274,-0.071 0.350876,-0.1254 0.581165,-0.2187 0.103465,-0.0493 0.209834,-0.0917 0.310402,-0.14615 0.09896,-0.0539 0.386298,-0.23075 0.28722,-0.17745 -0.512826,0.27626 -1.007066,0.5874 -1.52889,0.8462 -0.0862,0.042 0.144705,-0.127 0.213794,-0.194 0.186552,-0.1807 0.184667,-0.1916 0.341164,-0.3905 0.197824,-0.27121 0.39323,-0.55492 0.444849,-0.89294 -0.307252,-0.90943 1.093161,-1.45661 1.977403,-1.4238 0.571032,-0.0103 1.118619,0.13014 1.630023,0.37503 0.483216,0.25783 0.800247,0.67709 0.934511,1.20189 0.01032,0.18215 0.02891,0.2617 -0.01607,0.44029 -0.02405,0.0951 -0.106457,0.30125 -0.198709,0.35973 -1.860259,1.1794 -1.235824,1.0604 -2.203083,1.1987 -0.41772,0.022 -0.690832,0.088 -1.032182,-0.1841 -0.16322,-0.1229 -0.394064,-0.3047 -0.593472,-0.1692 0.590116,-0.3281 1.179617,-0.6574 1.77035,-0.98446 0.03916,-0.0218 -0.08508,0.0458 -0.101883,0.0871 -0.03469,0.0859 0.0078,0.16645 0.04103,0.24305 0.321855,0.4259 0.74589,0.7454 1.198086,1.0197 0.693592,0.375 1.407431,0.7045 2.141816,0.9902 0.816377,0.3519 1.005919,-0.2437 -1.584348,1.2676 -0.0417,0.024 -0.09061,-0.033 -0.134939,-0.053 -0.433762,-0.1873 0.01202,-0.019 -0.562275,-0.2206 -1.054539,-0.3707 -2.128775,-0.6826 -3.211895,-0.9581 -0.43541,-0.1171 -0.933747,-0.2473 -1.08333,-0.7208 -0.02662,-0.2092 0.0678,-0.3662 0.250895,-0.4683 2.037574,-1.13605 1.2676,-0.9799 2.291735,-1.14591 0.9749,-0.11349 1.960351,-0.0906 2.940311,-0.0963 1.208051,0.0115 2.409963,0.15372 3.592378,0.3943 0.288434,0.044 0.592282,0.1735 0.891134,0.1317 0.04422,-0.011 0.163693,-0.071 0.124833,-0.048 -2.735196,1.5477 -2.304988,1.295 -1.70024,0.9386 0.06723,-0.3673 -0.253863,-0.8374 -0.429405,-1.1416 -0.352975,-0.51643 -0.779931,-0.97613 -1.169029,-1.46454 -0.740377,-0.87492 0.858434,-1.9378 1.852179,-1.59381 0.464367,0.15134 0.917796,0.33415 1.379086,0.49486 0.422426,0.16933 0.871898,0.31229 1.18443,0.65688 0.248887,0.43001 -0.0393,0.64814 -0.382102,0.88131 -1.152517,0.73767 -4.124716,2.3237 -0.651675,0.38645 0.06746,-0.0378 -0.129272,0.0848 -0.191937,0.12987 -0.134288,0.0963 -0.134314,0.10317 -0.245301,0.21024 -0.134679,0.1693 -0.169958,0.10202 0.05132,0.12437 0.533658,0.17617 1.089856,0.25977 1.642686,0.35287 0.91715,0.1387 1.843486,0.1988 2.769752,0.2305 0.240088,0 0.499363,0.031 0.727992,-0.067 0.04855,-0.021 0.179868,-0.11 0.133885,-0.084 -1.72599,0.9675 -2.170971,1.4375 -1.625978,0.8815 0.08013,-0.1219 0.07943,-0.2681 0.117255,-0.4035 0.216983,-0.7765 2.036072,-1.36373 2.089112,-1.39445 0.401984,-0.0355 0.644971,0.0183 0.921548,0.31454 0.156637,0.27191 0.306741,0.54611 0.558243,0.74041 0.103098,0.053 0.22344,0.1336 0.347298,0.1043 0.02956,-0.011 0.105712,-0.06 0.07913,-0.045 -1.799911,0.9977 -2.442566,1.1463 -1.736828,0.9785 0.01055,-0.2261 -0.04766,-0.4562 -0.115979,-0.6711 -0.08123,-0.279 -0.133311,-0.5662 -0.190869,-0.8511 -0.06142,-0.14191 -0.0981,-0.62404 -0.244649,-0.68479 0.172225,0.76609 -0.0064,0.10431 1.828364,-0.94362 0,0 -1.953522,0.87071 -1.953522,0.87071 l 0,0 c 1.893588,-1.14286 1.321677,-1.60697 1.947638,-1.04354 0.176087,0.23279 0.199156,0.53322 0.288277,0.80388 0.05411,0.27703 0.117908,0.55249 0.186432,0.82588 0.08086,0.24968 0.127443,0.50428 0.173721,0.76248 0.103419,1.0295 -1.674915,1.5981 -2.405444,1.0166 -0.239393,-0.215 -0.411783,-0.4775 -0.571376,-0.7553 -0.217973,-0.2039 -0.493752,-0.2184 -0.766725,-0.099 0.558991,-0.3307 1.117982,-0.6614 1.676975,-0.99212 -0.09125,0.0413 -0.151936,0.0481 -0.200713,0.14328 -0.07197,0.14114 -0.02846,0.31594 -0.09031,0.46044 -0.381978,1.0859 -1.838535,1.4139 -2.861532,1.3458 -0.923714,-0.057 -1.846148,-0.1368 -2.763307,-0.2627 -0.574706,-0.085 -1.148325,-0.173 -1.710412,-0.323 -0.222509,-0.073 -0.467159,-0.2841 -0.25324,-0.5121 0.502346,-0.67783 2.178221,-1.41995 2.434118,-1.57511 0.515859,-0.31281 -1.044127,0.60474 -1.566255,0.90691 -0.07085,0.0413 0.141628,-0.0825 0.212441,-0.12323 0.111924,-0.0619 0.482794,-0.26307 0.55494,-0.37335 0.03834,-0.0585 -0.0031,-0.11578 -0.02372,-0.16759 -0.291131,-0.30854 -0.723867,-0.42611 -1.104672,-0.58638 -0.454082,-0.16207 -0.906325,-0.34485 -1.381463,-0.43521 -0.770409,0.16753 0.04034,0.002 1.656822,-1.02277 0.02251,-0.0142 -0.05307,-0.029 -0.07772,-0.0189 -0.05972,0.0245 0.0099,0.17126 0.01066,0.17316 0.02628,0.0555 0.06271,0.10569 0.09408,0.15844 0.382293,0.50386 0.804998,0.97683 1.169442,1.49415 0.248132,0.403 0.503663,0.82553 0.565409,1.30369 -0.239859,1.645 -1.996054,1.2734 -2.942851,1.0347 -1.163367,-0.2508 -2.346708,-0.3966 -3.538971,-0.3785 -0.99105,0.012 -1.992557,10e-4 -2.9717,0.1737 -0.883343,0.248 -0.272885,0.1009 1.349774,-0.8795 0.09924,-0.06 -0.516758,0.2332 -0.353147,0.2178 0.03374,0.3815 0.639336,0.4535 0.906215,0.5653 1.078839,0.3129 2.153464,0.6402 3.230767,0.9583 0.200249,0.062 0.398056,0.1316 0.598753,0.1921 0.04855,0.015 0.187509,0 0.147837,0.035 -1.877818,1.4944 -1.106282,1.5143 -1.921751,1.1052 -0.721076,-0.3256 -1.439697,-0.6572 -2.138166,-1.0297 -0.487308,-0.2967 -0.958637,-0.6381 -1.308248,-1.096 -0.512482,-1.0239 0.931304,-1.25223 1.837227,-1.67923 0.261023,0.0275 0.484036,0.15223 0.686823,0.31535 0.272865,0.16248 0.613628,0.094 0.911203,0.0447 0.771697,-0.3032 0.341878,-0.14673 -1.418506,0.88657 -0.0524,0.031 0.106296,-0.061 0.149912,-0.1032 0.140599,-0.1364 0.160027,-0.3197 0.160879,-0.5046 -0.08934,-0.47548 -0.388977,-0.82716 -0.820406,-1.04381 -0.504913,-0.21264 -1.041922,-0.33936 -1.592525,-0.26008 -0.77137,0.24471 0.04284,-0.005 1.640185,-1.01979 0.01725,-0.0115 -0.03692,-0.0248 -0.0572,-0.0221 -0.07287,0.009 0.08675,0.24888 0.04194,0.24608 -0.0083,0.38038 -0.19308,0.71144 -0.419692,1.00909 -0.730835,1.09714 -2.020275,1.63044 -3.184796,2.17964 -0.472048,0.1766 -0.98089,0.3652 -1.491903,0.3289 -0.32676,-0.2386 -0.156943,-0.3955 0.01887,-0.6754 0.151627,-0.3807 0.188453,-0.5696 0.03494,-0.97068 -0.05609,-0.152 -0.117066,-0.30136 -0.174702,-0.45267 -0.01581,-0.0413 -0.08609,-0.0974 -0.05038,-0.12334 1.74622,-1.29098 1.31957,-1.69638 1.876051,-1.10784 0.267942,0.27572 0.484931,0.59753 0.730901,0.8921 0,0 -1.819434,1.09243 -1.819434,1.09243 z"
       inkscape:connector-curvature="0" />
    <path
       style="fill:#333333;fill-opacity:1;stroke:none;stroke-width:0.2;stroke-linejoin:bevel;stroke-miterlimit:4;stroke-dasharray:none;stroke-dashoffset:0;stroke-opacity:1"
       id="path4295"
       d="m 14.505291,1005.317 c 0.0089,0.4121 -0.196651,0.7885 -0.432913,1.1278 -0.0956,0.092 -0.141155,0.2148 -0.215346,0.3174 -0.008,0.012 -0.01864,-0.033 -0.0062,-0.039 0.02831,-0.015 0.06484,-0.012 0.09725,-0.017 0.693984,0.019 1.385429,0.088 2.059359,0.2426 0.7137,0.1709 1.27011,0.4687 1.702971,1.0152 0.636852,1.1681 -0.601124,1.1467 -1.858976,1.7531 -0.42547,-0.1337 -0.873077,-0.1846 -1.307803,-0.2845 -0.352974,-0.1007 -0.570061,-0.3544 -0.77054,-0.6221 -0.218312,-0.2707 -0.444657,-0.3537 -0.805507,-0.3245 -0.149826,0.014 -0.306281,0.053 -0.439848,0.1196 -0.0383,0.019 -0.143702,0.089 -0.105792,0.071 1.708176,-0.881 2.210135,-1.3155 1.630525,-0.8269 -0.217646,0.2182 -0.307666,0.4929 -0.365725,0.7767 -0.04599,0.2544 0.128397,0.4498 0.231993,0.6721 0.01502,0.041 0.02855,0.083 0.04504,0.1232 0.0038,0.011 0.06715,0.1474 0.07812,0.1677 0.0037,0.01 0.02144,0.015 0.01424,0.019 -1.910186,0.9524 -1.657509,1.5319 -1.921409,0.8272 -0.0068,-0.034 -0.01348,-0.066 -0.02022,-0.1 0,0 1.890012,-0.9026 1.890012,-0.9026 l 0,0 c -0.0013,0.02 -0.0024,0.039 -0.0037,0.06 0.254873,0.682 0.06012,0.092 -1.807721,1.0841 -0.01009,0.01 -0.01162,-0.041 -0.03841,-0.107 -0.09909,-0.2425 -0.0084,0.017 -0.08737,-0.2204 -0.114229,-0.2556 -0.314508,-0.4803 -0.276846,-0.7727 0.04743,-0.3092 0.11447,-0.6062 0.305195,-0.871 0.469527,-0.5915 1.646988,-1.2152 2.584133,-1.2535 0.38332,0.038 0.695777,0.1778 0.918064,0.4767 0.176617,0.2309 0.362516,0.4392 0.676053,0.5108 0.423857,0.091 0.857143,0.187 1.288613,0.2256 -0.574184,0.311 -1.157852,0.6078 -1.722551,0.9332 -0.02923,0.016 0.07472,0.016 0.103614,-7e-4 0.03029,-0.017 0.03677,-0.058 0.04694,-0.09 0.05326,-0.1668 0.0014,-0.3168 -0.08608,-0.465 -0.416813,-0.5292 -0.904615,-0.7581 -1.594201,-0.9176 -0.690036,-0.1387 -1.388778,-0.1815 -2.094315,-0.194 -0.05419,-0.016 -0.114023,-0.02 -0.162544,-0.046 -0.263481,-0.1464 -0.03182,-0.4203 0.08676,-0.5675 0.239752,-0.2898 0.450629,-0.6148 0.485103,-0.9845 0,0 1.880009,-0.9133 1.880009,-0.9133 z"
       inkscape:connector-curvature="0" />
    <path
       style="fill:#333333;fill-opacity:1;stroke:none;stroke-width:0.2;stroke-linejoin:bevel;stroke-miterlimit:4;stroke-dasharray:none;stroke-dashoffset:0;stroke-opacity:1"
       id="path4297"
       d="m 18.218181,1005.669 c -3.867007,2.1417 -0.212636,0.1152 0.402109,-0.2131 0.348602,-0.1862 0.762061,-0.2816 1.144767,-0.3774 0.539888,-0.087 0.790821,0.025 1.012094,0.5028 0.126735,0.4865 0.03735,0.9924 -0.05163,1.4782 -0.07668,0.3358 -0.243471,0.6478 -0.268523,0.9932 0.01788,0.2446 -0.01162,0.4658 -0.161198,0.6675 -0.366246,0.2442 -0.720692,0.5011 -1.060416,0.7788 -0.187436,0.1774 -0.502145,0.4005 -0.13761,0.5691 0.454609,0.1359 0.939506,0.062 1.406831,0.042 0.350289,0 0.706494,-0.042 1.043499,-0.1385 0.670504,-0.1929 2.146534,-1.0813 -0.922335,0.5684 0.410671,-0.2957 0.584041,-0.617 0.625722,-1.0982 -0.09036,-0.8329 0.113335,-2.4153 1.928222,-1.5661 0.506422,0.2847 2.897299,-1.4454 -1.772108,1.1624 -0.0146,0.01 -0.358286,-0.1735 -0.468297,-0.2244 -0.570391,-0.2313 -1.150157,-0.444 -1.70327,-0.712 -1.020949,-0.6972 0.675039,-1.0423 1.594326,-1.555 0.03429,-0.018 0.51118,-0.037 0.521947,-0.037 1.225684,-0.062 2.447131,0.065 3.647505,0.2958 0.487939,0.1353 0.981447,0.2621 1.434042,0.4895 0.260444,0.131 0.500819,0.3031 0.74647,0.4576 0.154227,0.081 0.309525,0.1035 0.477137,0.039 0.05869,-0.022 0.219788,-0.1187 0.164859,-0.09 -1.688441,0.9135 -2.104151,1.2294 -1.405491,0.7219 0.327502,-0.2692 0.700678,-0.5302 0.884787,-0.9171 0.04359,-0.1266 -0.05796,0.1442 0.06283,0.092 2.665265,-1.1366 2.189643,-1.3258 1.579794,-0.7148 -0.152796,0.1919 -0.2888,0.3963 -0.415345,0.605 -0.13364,0.2534 -0.247287,0.5208 -0.335639,0.7924 -0.05354,0.2591 0.05437,0.5112 0.198983,0.7251 0.297601,0.3316 0.78357,0.3066 1.197925,0.275 0.100118,-0.018 0.201758,-0.031 0.300346,-0.055 0.145602,-0.037 0.496377,-0.1616 0.629099,-0.2227 0.102216,-0.047 0.395329,-0.2134 0.296639,-0.1599 -1.587308,0.862 -1.942065,1.1353 -1.236579,0.6248 0.238077,-0.2161 0.531609,-0.5006 0.457785,-0.8453 -0.167832,-0.093 -0.416617,0 -0.56822,0.081 0.556956,-0.3021 1.110371,-0.6102 1.670868,-0.9061 0.04723,-0.025 -0.08966,0.059 -0.129879,0.092 -0.139175,0.1195 -0.205646,0.2441 -0.174485,0.4202 0.160104,0.2535 0.542683,0.1576 0.801794,0.1491 0.763663,-0.031 1.45825,-0.3135 2.121952,-0.6559 -2.796149,1.4969 -1.090562,0.8161 -0.701334,0.011 0.341527,-0.7881 0.08092,-0.2394 1.986051,-1.167 0.02939,-0.014 0.06371,0.016 0.09608,0.022 0.07569,0.014 0.176104,0.023 0.251458,0.031 0.384776,0.011 0.650027,0.053 0.930232,0.3188 0.145857,0.204 0.36573,0.3753 0.457785,0.6077 -0.0041,0.02 -0.0083,0.04 -0.01245,0.061 0,0 -1.983901,0.7764 -1.983901,0.7764 l 0,0 c 0.01409,0 0.02818,0.011 0.04226,0.014 0.02177,0.027 0.04134,0.054 0.06531,0.078 0.07164,0.073 -0.04594,-0.062 -0.08218,-0.1102 -0.05937,-0.08 -0.109621,-0.164 -0.174527,-0.2398 -0.03465,-0.041 -0.07454,-0.076 -0.111811,-0.1148 -0.249875,-0.193 -0.549757,-0.1932 -0.859473,-0.2087 -0.04184,0 -0.205743,-0.02 -0.254627,-0.017 -0.02471,9e-4 -0.09421,0.025 -0.07292,0.013 0.589073,-0.3345 1.1941,-0.6427 1.779911,-0.9824 0.02153,-0.012 -0.0531,-0.017 -0.07514,-0.012 -0.02712,0.014 -0.03504,0.048 -0.05257,0.074 -0.03439,0.079 -0.100886,0.2372 -0.141099,0.3021 -0.546874,0.8823 -2.031169,1.3031 -2.699835,1.7847 -0.696005,0.3272 -1.420696,0.5831 -2.204925,0.6042 -0.387635,0.012 -0.781761,0.012 -0.974049,-0.3715 -0.0388,-0.1319 -0.06608,-0.1762 -0.04844,-0.3178 0.109804,-0.8817 2.370782,-1.1119 2.214497,-1.5124 0.29093,-0.064 0.597881,-0.075 0.772391,0.1994 0.128688,0.4182 -0.09455,0.7726 -0.392003,1.0733 -0.845264,0.6859 -0.274866,0.2461 -2.320629,1.3729 -0.390651,0.2152 -0.841084,0.3303 -1.285588,0.374 -0.494625,0.011 -1.01617,-0.028 -1.341369,-0.4354 -0.178885,-0.261 -0.301133,-0.5572 -0.288494,-0.8753 0.07371,-0.2918 0.212109,-0.558 0.312504,-0.8414 0.132091,-0.2121 0.260424,-0.4256 0.398007,-0.6332 0.4605,-0.6128 1.83746,-1.9943 2.242178,-1.1197 0.01089,0.023 -0.0026,0.051 -0.004,0.077 -0.128591,0.4385 -0.512804,0.7474 -0.867037,1.0255 -0.726958,0.6759 -0.270388,0.2801 -2.198161,1.2858 -0.242657,0.1267 -0.544904,0.014 -0.752948,-0.1135 -0.22614,-0.1554 -0.449281,-0.3238 -0.695464,-0.4495 -0.430787,-0.2201 -0.902003,-0.35 -1.369239,-0.4754 -1.207383,-0.2247 -2.437422,-0.3404 -3.66565,-0.2102 -0.104898,0.016 -0.211571,0.024 -0.314704,0.05 -0.06452,0.015 -0.240588,0.1058 -0.185516,0.07 0.545383,-0.3548 1.109307,-0.6827 1.659985,-1.0299 0.01558,-0.011 -0.05302,0 -0.05311,0.016 -3.33e-4,0.067 0.193668,0.1752 0.203187,0.1818 0.550869,0.2716 1.12784,0.4871 1.704915,0.7011 0.07594,0.032 0.287778,0.1214 0.37396,0.1552 0.03521,0.014 0.136017,0.015 0.106663,0.038 -0.537409,0.426 -1.115659,0.8021 -1.673488,1.2033 -0.03254,-0.029 -0.01474,-0.027 -0.05208,-0.013 -0.413714,0.5909 -0.04871,0.058 1.733818,-1.0022 0.01803,-0.011 -0.04475,0.012 -0.05611,0.029 -0.03643,0.055 -0.01609,0.1909 -0.01177,0.2359 0.0061,0.063 0.01556,0.1263 0.02334,0.1893 -0.02399,0.5255 -0.148617,0.907 -0.566601,1.274 -1.521715,0.8614 -2.129661,1.4522 -3.750063,1.4933 -0.504684,0.027 -1.034291,0.089 -1.504561,-0.1302 -0.408353,-0.2982 -0.379254,-0.5698 -0.02658,-0.9108 0.328104,-0.2775 0.658955,-0.5583 1.035521,-0.7742 0.24207,-0.091 0.251272,-0.2841 0.237195,-0.5106 10e-4,-0.3649 0.149704,-0.6927 0.274438,-1.033 0.103006,-0.4435 0.182131,-0.9112 0.101906,-1.3633 -0.18769,-0.4108 -0.4149,-0.3513 -0.832854,-0.2727 -0.289374,0.081 -0.572021,0.167 -0.847331,0.2861 -0.0924,0.039 -0.359744,0.1792 -0.272928,0.1289 0.048,-0.028 4.863986,-2.7252 -0.416524,0.2327 0,0 1.649157,-1.2831 1.649157,-1.2831 z"
       inkscape:connector-curvature="0" />
    <path
       style="fill:#333333;fill-opacity:1;stroke:none;stroke-width:0.2;stroke-linejoin:bevel;stroke-miterlimit:4;stroke-dasharray:none;stroke-dashoffset:0;stroke-opacity:1"
       id="path4299"
       d="m 34.479628,1010.9854 c -0.242962,-0.2195 -0.572154,-0.4153 -0.656375,-0.7302 0.20891,-1.4118 1.951633,-1.1202 2.928344,-1.0717 0.927615,0.1172 1.859535,0.1948 2.79138,0.2793 0.43549,0.039 0.871321,0.076 1.307822,0.1042 0.165914,0.012 0.387802,0.042 0.555944,-0.01 0.05667,-0.017 0.0991,-0.061 0.148645,-0.091 -0.572666,0.29 -1.131492,0.6035 -1.717997,0.8701 -0.04015,0.019 0.04805,-0.072 0.05129,-0.1127 0.0053,-0.066 -0.0084,-0.1333 -0.0265,-0.1976 -0.07684,-0.2732 -0.250132,-0.5116 -0.413235,-0.747 -0.273579,-0.4142 -0.714593,-0.7568 -0.800739,-1.2486 0.0099,-0.1109 0.02294,-0.2936 0.149373,-0.3612 1.01614,-0.5438 1.378975,-1.0607 2.299821,-1.0005 0.5235,0.099 0.998613,0.3595 1.448613,0.6126 0.336613,0.1548 0.666669,0.4261 1.063127,0.3949 0.682037,-0.2872 0.523767,-0.2235 -1.593961,0.8062 -0.04206,0.021 0.07962,-0.049 0.113587,-0.079 0.118566,-0.1058 0.166283,-0.2482 0.221464,-0.3853 0.07304,-0.2006 0.121048,-0.4446 0.344631,-0.5602 1.968189,-1.018 1.262096,-0.9019 2.251913,-1.0269 0.74318,-0.049 1.490223,-0.056 2.234327,-0.023 0.683807,0.043 1.340121,0.208 1.981857,0.4149 0.271023,0.1024 0.631629,0.2884 0.542418,0.6109 -0.01522,0.055 -0.05428,0.1024 -0.08142,0.1536 -0.960192,0.8814 -2.288697,1.2199 -3.496736,1.6997 -0.263326,0.1101 -0.363326,0.1468 -0.614466,0.2712 -0.08871,0.044 -0.350106,0.1834 -0.262107,0.1382 2.722559,-1.3955 1.770801,-0.9864 1.200766,-0.5537 -0.142664,0.134 -0.43346,0.346 -0.23511,0.5296 0.247505,0.2163 0.518219,0.2741 0.838052,0.1652 0.653267,-0.4461 -0.03449,0.031 -1.590465,0.7965 -0.03541,0.017 0.05939,-0.05 0.08484,-0.077 0.02322,-0.026 0.126618,-0.1797 0.154637,-0.1955 0.635416,-0.3574 1.288367,-0.6888 1.932552,-1.0333 0.441503,-0.079 0.892803,-0.094 1.339689,-0.1427 0.423856,-0.02 0.86576,-0.1345 1.27874,-0.012 0.740208,0.4823 0.802295,-0.08 -1.60478,1.0468 -0.0186,0.01 0.0025,-0.039 0.0011,-0.057 -0.0021,-0.029 -0.0077,-0.058 -0.01146,-0.087 -0.05906,-0.2679 0.01693,-0.4905 0.223933,-0.6839 2.202709,-1.1508 1.56753,-1.1084 3.346421,-0.8403 0.713404,0.077 1.436372,0.1696 2.156192,0.1325 0.06536,-0.014 0.133481,-0.022 0.1961,-0.044 0.04882,-0.017 0.180209,-0.097 0.134403,-0.075 -0.572638,0.2898 -1.13777,0.5918 -1.71499,0.874 -0.03439,0.016 0.06074,-0.046 0.08224,-0.076 0.05851,-0.08 0.08918,-0.1918 0.120297,-0.2811 0.08343,-0.3593 0.320556,-0.6491 0.558934,-0.9361 0.485573,-0.5404 1.409966,-1.4579 2.062794,-1.0177 0.08791,0.059 0.147054,0.1597 0.219768,0.2331 0.163223,0.1853 0.394202,0.2489 0.642374,0.2868 0.324142,0 0.623195,0.07 0.932891,0.1449 0.365769,0.1362 0.77355,0.1481 1.121251,0.3204 0.134783,0.1302 0.0795,0.059 0.167305,0.214 0,0 -1.850753,0.9464 -1.850753,0.9464 l 0,0 c -0.03794,-0.083 -0.0097,-0.045 -0.08735,-0.1093 -0.346346,-0.1378 -0.733012,-0.1772 -1.089092,-0.292 -0.310299,-0.07 -0.622136,-0.09 -0.937369,-0.1337 -0.279618,-0.069 -0.529423,-0.1791 -0.719871,-0.3831 -0.03936,-0.04 -0.06874,-0.09 -0.119429,-0.1172 -0.0066,0 -0.07119,0.051 -0.05069,0.042 0.584875,-0.3055 1.165001,-0.6182 1.7475,-0.9275 -0.02988,0.015 -0.05977,0.031 -0.08965,0.047 -0.256206,0.2488 -0.504105,0.5298 -0.601658,0.863 -0.01216,0.048 -0.108279,0.4406 -0.140959,0.46 -0.9054,0.5367 -1.373609,1.0159 -2.277539,1.0753 -0.724108,-0.013 -1.445794,-0.089 -2.163879,-0.1691 -0.315078,-0.044 -0.634037,-0.099 -0.953994,-0.1051 -0.755832,-0.013 -1.783858,0.8086 1.28211,-0.8332 -0.234421,0.086 -0.372078,0.2515 -0.314594,0.4875 0.0058,0.03 0.01123,0.06 0.01769,0.09 0.0062,0.028 0.04679,0.068 0.02027,0.085 -2.738319,1.6486 -1.168789,1.263 -2.051811,0.9058 -0.40236,-0.057 -0.813719,0.032 -1.21558,0.057 -0.436493,0.047 -0.902843,0.036 -1.304154,0.2144 0.558951,-0.3002 1.117903,-0.6006 1.676854,-0.9009 -0.03386,0.022 -0.07304,0.037 -0.101573,0.064 -0.0639,0.059 -0.05783,0.1728 -0.135284,0.2184 -1.687341,0.9914 -1.218034,0.8508 -2.058728,1.0815 -0.382704,0.03 -0.700865,-0.084 -0.971879,-0.3322 -0.276348,-0.31 -0.167641,-0.5202 0.104393,-0.8012 0.918734,-0.7857 2.121702,-1.2447 3.253575,-1.7341 0.329257,-0.125 0.668932,-0.2341 0.992761,-0.37 0.099,-0.042 0.38494,-0.186 0.291393,-0.1352 -1.182822,0.6427 -2.127579,1.1001 -1.358177,0.7255 0.02426,-0.019 0.15149,-0.1042 0.165989,-0.1513 0.05161,-0.1679 -0.328089,-0.265 -0.422527,-0.3141 -0.618162,-0.2054 -1.2587,-0.3505 -1.919343,-0.3838 -0.743572,-0.021 -1.495197,-0.02 -2.232274,0.079 -0.851449,0.2136 -0.201517,0.07 1.390024,-0.8087 0.135162,-0.075 -0.211281,0.059 -0.285388,0.1466 -0.04927,0.058 -0.09564,0.2343 -0.115072,0.2965 -0.03856,0.1055 -0.06496,0.2144 -0.108027,0.3185 -0.30233,0.7302 -1.478509,1.2625 -2.26731,1.261 -0.408067,-0.07 -0.748712,-0.2965 -1.100552,-0.4847 -0.426163,-0.2351 -0.885429,-0.4905 -1.396421,-0.5116 -0.05547,0.01 -0.111833,0.01 -0.166405,0.021 -0.04887,0.01 -0.185222,0.067 -0.142503,0.043 0.557072,-0.3085 1.125701,-0.5998 1.688552,-0.8999 -0.07605,0.028 -0.13964,0.04 -0.193548,0.1003 -0.02356,0.027 -0.03345,0.061 -0.05017,0.092 -0.01471,0.4632 0.498459,0.8019 0.71972,1.1842 0.225363,0.3189 0.471475,0.6624 0.536347,1.0449 0.0117,0.069 0.06958,0.1676 0.0076,0.2093 -0.595467,0.4005 -1.262477,0.706 -1.893715,1.0589 -0.636365,0.1188 -1.373228,-0.1067 -2.01783,-0.1153 -0.939976,-0.083 -1.87956,-0.1692 -2.819562,-0.2495 -0.270274,-0.01 -0.567729,-0.045 -0.837533,-0.01 -0.0461,0.01 -0.172144,0.062 -0.132692,0.04 1.666879,-0.947 2.379194,-0.9498 1.631009,-0.9344 -0.0094,0.013 -0.0314,0.023 -0.02824,0.038 0.0383,0.1808 0.457018,0.4381 0.599466,0.5679 0,0 -1.811644,1.0016 -1.811644,1.0016 z"
       inkscape:connector-curvature="0" />
    <path
       style="fill:#333333;fill-opacity:1;stroke:none;stroke-width:0.2;stroke-linejoin:bevel;stroke-miterlimit:4;stroke-dasharray:none;stroke-dashoffset:0;stroke-opacity:1"
       id="path4301"
       d="m 13.22455,1015.476 c 0.06709,0.3808 0.194766,0.722 0.39503,1.0503 0.245083,0.3169 0.334575,0.1745 0.598277,0.011 -2.882746,1.7828 -1.897474,1.1801 -1.323816,0.6442 0.19648,-0.1836 0.381119,-0.3776 0.565977,-0.5727 0.659505,-0.6922 1.31872,-0.916 2.310147,-1.453 0.180236,-0.097 0.374449,0 0.535527,0.072 0.385703,0.2034 0.625027,0.5585 0.866757,0.9064 0.04535,0.064 0.09182,0.1265 0.136032,0.191 0.07873,0.1147 0.143101,0.2161 0.213926,0.334 0.01304,0.022 0.05921,0.053 0.03759,0.067 -1.882084,1.1483 -1.405371,1.5913 -2.000713,0.9345 -0.399371,-0.4478 -0.861811,-0.8299 -1.264896,-1.274 -0.75783,-0.9639 0.364094,-0.9727 1.668792,-1.7029 0.0092,0 0.460102,-0.011 0.477253,-0.011 0.901256,0.05 1.799746,0.1409 2.687708,0.3042 0.330559,0.049 0.672096,0.1588 1.01137,0.1219 0.05333,-0.011 0.200905,-0.072 0.154381,-0.046 -1.914606,1.099 -2.232036,1.3841 -1.670332,0.895 0.04145,-0.1671 0.02923,-0.3733 -0.03731,-0.5351 -0.0102,-0.025 -0.0075,0.091 0.01676,0.079 0.622766,-0.3015 1.221908,-0.6495 1.832863,-0.9742 -0.194746,0.5353 -0.511405,1.0198 -0.798902,1.5095 -0.03462,0.052 -0.363059,0.6119 -0.279756,0.6591 0.04232,0.024 0.08965,-0.038 0.132206,-0.062 0.170795,-0.013 0.473363,-0.262 0.622342,-0.2547 0.04142,0 0.07968,0.023 0.119513,0.034 0,0 -1.72706,1.2463 -1.72706,1.2463 l 0,0 c -0.23893,0.093 -0.469337,0.2263 -0.73357,0.2243 -0.601779,-0.1791 -0.239808,-0.6424 -0.03614,-1.0038 0.280469,-0.4639 0.574688,-0.9331 0.775705,-1.4367 1.789306,-1.0792 1.920571,-1.7861 2.047653,-0.3672 -0.30866,1.5433 -2.10059,1.3152 -3.116489,1.0894 -0.886439,-0.1573 -1.787563,-0.2592 -2.689053,-0.242 -0.08727,0.011 -0.17568,0.011 -0.261806,0.029 -0.06414,0.013 -0.240744,0.096 -0.186728,0.06 0.543327,-0.3704 1.105271,-0.7127 1.660667,-1.0647 0.02022,-0.013 -0.0528,0.023 -0.05455,0.047 -0.0077,0.1043 0.130432,0.2592 0.171786,0.3179 0.395894,0.4452 0.851669,0.8298 1.279723,1.2433 0.669141,0.5073 0.179083,0.081 -1.674056,1.2098 -0.01155,0.011 0.007,-0.028 0.0021,-0.04 -0.03636,-0.092 -0.141282,-0.2497 -0.190852,-0.3228 -0.04418,-0.065 -0.09123,-0.1281 -0.136846,-0.1922 -0.220615,-0.3113 -0.443545,-0.6393 -0.811102,-0.7877 -0.123358,-0.025 -0.135306,-0.042 -0.262469,-0.011 -0.05737,0.016 -0.217077,0.096 -0.1664,0.065 2.93251,-1.8102 1.815777,-1.1855 1.271926,-0.6703 -0.240424,0.256 -0.48255,0.5056 -0.735391,0.7489 -0.05124,0.049 -0.08856,0.1151 -0.148798,0.1528 -0.639466,0.4011 -1.296466,0.7735 -1.944699,1.1603 -0.346682,0.1439 -0.570361,0.027 -0.774524,-0.2739 -0.200201,-0.3424 -0.338891,-0.6969 -0.429074,-1.0839 0,0 1.863425,-1.0263 1.863425,-1.0263 z"
       inkscape:connector-curvature="0" />
    <path
       style="fill:#333333;fill-opacity:1;stroke:none;stroke-width:0.2;stroke-linejoin:bevel;stroke-miterlimit:4;stroke-dasharray:none;stroke-dashoffset:0;stroke-opacity:1"
       id="path4303"
       d="m 23.190012,1014.9856 c -0.301511,0.229 -0.593464,0.4734 -0.777918,0.8089 -0.100382,0.2456 0.211307,0.1441 0.338428,0.1032 0.04691,-0.023 0.09263,-0.049 0.140727,-0.069 0.05585,-0.024 0.115496,-0.038 0.170701,-0.063 0.0541,-0.025 0.207945,-0.1158 0.156319,-0.086 -0.551889,0.3163 -2.206371,1.2669 -1.657129,0.9462 1.810115,-1.0573 1.311963,-0.8108 2.161044,-1.2218 0.421135,-0.1783 0.858792,-0.1822 1.275774,0 0.337376,0.1692 0.516478,0.4552 0.616245,0.8069 0.03308,0.078 0.08836,0.4587 0.257057,0.3969 0.02851,-0.012 0.04224,-0.044 0.06336,-0.065 -3.623475,1.9251 -1.814117,1.377 -1.575866,0.6998 0.07649,-0.2173 0.09376,-0.4507 0.116685,-0.6779 0.04728,-0.46 0.127654,-0.9167 0.236605,-1.366 0.309894,-0.8718 1.496852,-1.1061 2.219755,-1.4485 9.03e-4,-4e-4 0.47246,0.021 0.492179,0.022 0.551884,0.028 1.117247,0.03 1.639231,0.2285 0.351869,0.2298 0.445207,0.5966 0.458232,0.9935 -0.05036,0.306 -0.210379,0.649 -0.489438,0.8171 -0.655375,0.3949 -1.32257,0.77 -1.983854,1.1549 -0.359443,0.1658 -0.742511,0.2439 -1.136107,0.205 -0.02729,-0.011 -0.05848,-0.011 -0.08187,-0.024 -0.02478,-0.017 -0.07992,-0.054 -0.05567,-0.071 0.587046,-0.4324 1.194731,-0.8373 1.813221,-1.2234 0.0085,0 0.596759,0.011 0.615467,0.011 0.882586,0.012 1.765507,-0.014 2.647536,0.022 0.706555,0.031 1.421641,0.084 2.097599,0.3037 0.396102,0.1743 0.49571,0.4284 0.340301,0.8231 -0.139585,0.2866 -0.353402,0.5273 -0.586585,0.7413 -0.640692,0.361 -1.273519,0.7363 -1.922076,1.0829 -0.03316,0.018 -0.07539,0.012 -0.112705,0 -0.183183,-0.023 -0.272653,-0.1704 -0.347,-0.3199 -0.107569,-0.4073 -0.08395,-0.8388 -0.08526,-1.2568 -0.0041,-0.4691 -0.01851,-0.9364 0.06722,-1.3993 0.03337,-0.1815 0.02037,-0.099 0.04119,-0.2483 0,0 1.912877,-0.9326 1.912877,-0.9326 l 0,0 c -0.03399,0.1585 -0.01611,0.07 -0.05219,0.2648 -0.121579,0.4451 -0.108658,0.904 -0.101631,1.3622 0.0041,0.3859 -0.006,0.7787 0.06926,1.1586 0.01707,0.037 0.02594,0.079 0.06785,0.096 0.06818,0.029 0.153963,-0.025 0.214017,-0.045 -0.577011,0.3357 -1.154022,0.6716 -1.731032,1.0073 0.272966,-0.1278 0.464731,-0.3996 0.637403,-0.6379 0.167026,-0.299 0.231247,-0.3545 -0.149709,-0.5179 -0.655312,-0.1982 -1.338633,-0.2665 -2.021206,-0.2887 -0.891997,-0.025 -1.784744,-0.011 -2.67664,0.015 -0.118803,0 -0.370679,0.013 -0.497559,0.032 -0.04088,0.011 -0.15288,0.058 -0.119398,0.034 0.563554,-0.4094 1.15283,-0.7826 1.715365,-1.1933 0.06195,-0.045 -0.157462,-0.05 0.02681,-0.034 0.370338,0 0.726268,-0.1135 1.048454,-0.2915 -0.538944,0.3154 -1.078026,0.6305 -1.616832,0.9461 -0.05344,0.031 0.110916,-0.056 0.160732,-0.093 0.184925,-0.1365 0.325674,-0.3297 0.406874,-0.5429 0.01959,-0.3039 -0.02806,-0.6149 -0.319955,-0.7709 -0.512248,-0.1658 -1.057073,-0.1644 -1.590597,-0.1797 -0.08801,9e-4 -0.176189,0 -0.264031,0 -0.07258,0 -0.277144,0.068 -0.21644,0.028 0.542206,-0.3578 1.123853,-0.652 1.677646,-0.9916 0.03885,-0.024 -0.09013,0.021 -0.129891,0.042 -0.09486,0.053 -0.119438,0.1219 -0.174094,0.2112 -0.145343,0.4296 -0.202296,0.8872 -0.264507,1.3348 -0.125299,1.5537 -0.163952,1.0902 -2.125857,2.1887 -0.301532,-0.086 -0.408787,-0.3053 -0.478608,-0.5954 -0.06916,-0.2963 -0.209519,-0.5204 -0.50481,-0.6372 -0.400368,-0.1226 -0.798455,-0.053 -1.168559,0.1388 -0.06216,0.032 -0.24696,0.1328 -0.18651,0.097 0.545412,-0.3206 2.195517,-1.2585 1.641597,-0.9528 -0.745722,0.4116 -1.5748,1.0897 -2.476902,1.3053 -0.317213,0 -0.617333,-0.1247 -0.56975,-0.4936 0.141684,-0.3762 0.419167,-0.6512 0.730388,-0.8975 0,0 1.974041,-0.7923 1.974041,-0.7923 z"
       inkscape:connector-curvature="0" />
    <path
       style="fill:#333333;fill-opacity:1;stroke:none;stroke-width:0.2;stroke-linejoin:bevel;stroke-miterlimit:4;stroke-dasharray:none;stroke-dashoffset:0;stroke-opacity:1"
       id="path4315"
       d="m 12.333069,1022.97 c 0.141763,-0.3441 0.234641,-0.7052 0.383684,-1.0464 2.073771,-1.1844 1.57123,-1.5064 2.436602,-0.4186 0.246767,0.3023 0.389863,0.1375 0.656099,-0.028 -0.55468,0.3161 -1.104937,0.64 -1.664041,0.9483 -0.05288,0.029 0.09769,-0.071 0.143755,-0.1101 0.127982,-0.1089 0.233106,-0.2762 0.380211,-0.3598 0.660621,-0.3753 1.332882,-0.7296 1.999323,-1.0945 0.08061,0 0.161864,0 0.241834,0 0.209391,0.027 0.412266,0.092 0.618803,0.135 0.334513,0.071 0.665955,0.1499 0.998589,0.2291 0.295815,0.1241 0.849964,0.1264 0.99693,0.4816 0.02227,0.054 0.02018,0.1149 0.03025,0.1722 -0.06685,0.3353 -0.349372,0.5568 -0.602768,0.7616 -0.228996,0.1652 -0.470737,0.3116 -0.675602,0.5077 -0.579968,0.7173 -1.555425,1.5622 -2.440942,1.1425 -0.283889,-0.1163 -0.502474,-0.3295 -0.703269,-0.5544 -0.05287,-0.052 -0.133933,-0.149 -0.217902,-0.1636 -0.05697,-0.011 -0.190652,0.1302 -0.139793,0.1032 1.695676,-0.9169 2.204433,-1.501 1.689,-0.9245 -0.06069,0.1391 -0.03544,0.065 -0.07356,0.2217 0,0 -1.907842,0.93 -1.907842,0.93 l 0,0 c 0.02298,-0.1864 0.0085,-0.094 0.04333,-0.2758 0.237982,-0.8281 0.026,-0.1992 1.92525,-1.2661 0.05221,-0.03 0.215826,0.047 0.248309,0.067 0.10586,0.062 0.15731,0.1256 0.242737,0.2118 0.186305,0.1994 0.39015,0.3777 0.655726,0.4618 0.07159,0.015 0.125686,0.032 0.200779,0.021 0.02963,0 0.11032,-0.046 0.08453,-0.031 -0.575451,0.3415 -1.156519,0.6734 -1.734778,1.01 0.132491,-0.046 0.07296,-0.011 0.17421,-0.1195 0.160563,-0.2449 0.412967,-0.4094 0.663796,-0.5536 0.238067,-0.1798 0.473407,-0.3637 0.670519,-0.5893 0.01277,-0.017 0.03991,-0.031 0.03832,-0.052 -0.01308,-0.175 -0.752446,-0.3274 -0.881879,-0.3763 -0.328616,-0.081 -0.656713,-0.1615 -0.989834,-0.2232 -0.153092,-0.029 -0.436533,-0.084 -0.604513,-0.077 -0.07328,0 -0.144174,0.028 -0.21626,0.041 0.544674,-0.3237 1.09163,-0.6438 1.634024,-0.9714 0.0499,-0.03 -0.108967,0.045 -0.156157,0.079 -0.07756,0.056 -0.170441,0.1934 -0.233287,0.2599 -0.560692,0.5924 -1.648594,0.6822 -2.086657,1.2782 -0.363061,0.1599 -0.571856,0.102 -0.822665,-0.2115 -0.104703,-0.131 -0.209857,-0.2659 -0.322895,-0.39 -0.02344,-0.025 -0.04568,-0.055 -0.0763,-0.071 -0.01188,-0.011 -0.0511,0.016 -0.03951,0.011 0.59127,-0.3518 1.186833,-0.6965 1.780249,-1.0447 -0.273479,0.1605 -0.285087,0.7026 -0.420841,0.9733 0,0 -1.925563,0.9043 -1.925563,0.9043 z"
       inkscape:connector-curvature="0" />
    <path
       style="fill:#333333;fill-opacity:1;stroke:none;stroke-width:0.2;stroke-linejoin:bevel;stroke-miterlimit:4;stroke-dasharray:none;stroke-dashoffset:0;stroke-opacity:1"
       id="path4317"
       d="m 21.965856,1020.5131 c 0.106377,0.4734 0.233557,0.9412 0.320597,1.4192 0.167042,0.8712 0.413189,0.1773 -1.814784,1.1471 -0.03375,0.015 0.0072,-0.073 0.0094,-0.11 0.0025,-0.041 0.0032,-0.084 0.0048,-0.1255 0.03286,-0.2943 0.06781,-0.5925 0.156714,-0.8758 0.394563,-0.8093 1.501181,-1.0964 2.186058,-1.4767 0.08256,-0.046 0.182945,-0.048 0.271987,-0.079 0.360434,-0.1066 0.742337,-0.1112 1.115346,-0.1221 0.398834,0.026 0.836277,-0.097 1.210907,0.072 0.283935,0.2416 0.248491,0.6276 0.232865,0.9665 -0.04301,0.4801 -0.236896,0.9048 -0.520072,1.287 -0.692507,0.8552 -1.670566,1.212 -2.641768,1.7713 3.20044,-1.6399 2.038767,-1.2882 1.509566,-0.8384 0,0 -1.956341,0.8393 -1.956341,0.8393 l 0,0 c 0.394209,-0.7166 1.952195,-0.8286 2.095024,-1.3278 -4.014293,2.3367 -1.614836,1.0268 -1.223216,0.6726 0.06227,-0.056 0.22143,-0.2279 0.278752,-0.2889 0.295405,-0.3424 0.518868,-0.713 0.578235,-1.1716 0.01466,-0.1904 0.07516,-0.5966 -0.114183,-0.7211 -0.372588,-0.086 -0.768508,0 -1.146457,-0.017 -0.36917,0.022 -0.742856,0.046 -1.091184,0.1812 -0.688849,0.2387 -1.583417,0.8922 1.438347,-0.8914 0.134842,-0.079 -0.402977,0.2154 -0.297324,0.2565 -0.13588,0.2469 -0.128769,0.5318 -0.189389,0.8028 1.5e-5,0.063 3.02e-4,0.2469 -8.49e-4,0.2477 -1.72753,1.1231 -1.819444,1.7992 -1.950802,0.7874 -0.07276,-0.4717 -0.18546,-0.9332 -0.327186,-1.3889 0,0 1.864951,-1.0166 1.864951,-1.0166 z"
       inkscape:connector-curvature="0" />
    <path
       style="fill:#333333;fill-opacity:1;stroke:none;stroke-width:0.2;stroke-linejoin:bevel;stroke-miterlimit:4;stroke-dasharray:none;stroke-dashoffset:0;stroke-opacity:1"
       id="path4319"
       d="m 26.068941,1021.9981 c 0.02982,-0.3322 0.05407,-0.6792 0.285208,-0.9367 1.198544,-0.7896 1.818124,-1.6445 2.412346,-0.5604 0.15817,0.3517 0.15147,0.718 0.06043,1.0851 -0.09317,0.3228 -0.327251,0.4875 -0.593289,0.6567 -0.232065,0.1622 -0.238586,0.4066 -0.197043,0.6633 0.113575,0.3184 0.250537,0.3293 0.532386,0.2085 0.809952,-0.4415 -0.99353,0.5744 -1.497648,0.8484 -0.06189,0.033 0.114731,-0.081 0.169491,-0.1262 0.161001,-0.1303 0.294942,-0.2742 0.423884,-0.4352 0.718022,-1.2115 -0.312297,-0.2446 2.192193,-1.7166 0.24985,-0.032 0.419629,0.089 0.606269,0.2365 0.09915,0.048 0.188212,0.037 0.282193,-0.021 0.03342,-0.021 0.125688,-0.093 0.09137,-0.074 -1.645169,0.9137 -2.231279,1.3849 -1.606723,0.8917 0.251265,-0.2576 0.48563,-0.5257 0.699949,-0.8149 0.229833,-0.2774 0.42406,-0.5775 0.61909,-0.879 0.43698,-0.6584 1.584604,-1.602 2.228151,-0.9648 0,0 -1.806398,1.1336 -1.806398,1.1336 l 0,0 c -0.101104,-0.046 -0.208169,0.03 -0.163052,0 1.748275,-1.0237 2.443206,-1.1724 1.69811,-1.0043 -0.117803,0.11 -0.171883,0.2312 -0.258338,0.3665 -0.101276,0.1585 -0.13738,0.188 -0.254024,0.3372 -0.04417,0.056 -0.0868,0.1146 -0.130195,0.1712 -0.147763,0.2044 -0.285215,0.4361 -0.46384,0.6159 -0.03635,0.037 -0.08538,0.06 -0.121198,0.096 -0.03521,0.037 -0.06002,0.081 -0.09003,0.1227 -0.529029,0.7089 -0.10452,0.1718 -2.014897,1.2464 -0.158984,0.089 -0.370154,0 -0.505651,-0.087 -0.158683,-0.1043 -0.300836,-0.1605 -0.476582,-0.045 0.581875,-0.3462 1.165058,-0.6903 1.745626,-1.0388 0.02272,-0.014 -0.05209,0.016 -0.07178,0.034 -0.154468,0.1391 -0.140321,0.3916 -0.263826,0.5506 -0.604195,0.9197 -1.732513,1.4792 -2.716176,1.836 -0.384735,0.034 -0.581759,-0.141 -0.715561,-0.4951 -0.06859,-0.2973 -0.101711,-0.6124 0.09222,-0.8713 0.211223,-0.2019 0.530816,-0.2489 0.652499,-0.5465 0.12572,-0.3017 0.142916,-0.623 0.01304,-0.9279 -0.04756,-0.085 -0.101035,-0.2032 -0.18917,-0.2567 -0.07955,-0.048 -0.146352,0 -0.144078,0 0.575841,-0.3433 1.159477,-0.6732 1.739214,-1.0098 -0.348978,0.1135 -0.330049,0.4295 -0.367705,0.7444 0,0 -1.896479,0.9664 -1.896479,0.9664 z"
       inkscape:connector-curvature="0" />
    <path
       style="fill:#333333;fill-opacity:1;stroke:none;stroke-width:0.2;stroke-linejoin:bevel;stroke-miterlimit:4;stroke-dasharray:none;stroke-dashoffset:0;stroke-opacity:1"
       id="path4321"
       d="m 12.017852,1029.4645 c -0.02544,-0.37 -0.164582,-0.7157 -0.254013,-1.0717 -0.11848,-0.8969 0.769017,-0.7679 1.873372,-1.3979 0.03263,-0.018 0.503088,0 0.545253,0 0.593724,-2e-4 1.188618,0.039 1.781239,0 0.547039,-0.035 1.083148,0.049 1.616295,0.1586 0.183302,0.039 0.388603,0.064 0.553769,0.1624 0.02035,0.013 0.142664,0.156 0.171175,0.1077 -0.609132,0.324 -1.20986,0.6641 -1.827395,0.9718 -0.02607,0.013 0.02526,-0.053 0.03617,-0.079 0.0134,-0.033 0.02121,-0.069 0.03666,-0.1009 0.06661,-0.1393 0.160229,-0.2218 0.280043,-0.3142 1.460059,-0.8569 1.57451,-1.3266 2.796288,-1.024 0.299402,0.061 0.537044,0.3019 0.840712,0.3275 0.03157,-0.012 0.06662,-0.014 0.09472,-0.032 0.02769,-0.017 0.09645,-0.087 0.06769,-0.071 -0.587813,0.3246 -1.161498,0.6743 -1.748752,0.9998 -0.02645,0.015 0.04667,-0.04 0.06301,-0.065 0.05164,-0.08 0.05723,-0.1518 0.07713,-0.244 0.03313,-0.2449 0.03962,-0.5954 0.286106,-0.7411 0.647219,-0.3826 1.308841,-0.7401 1.96326,-1.1101 0.395197,-0.096 0.807703,-0.029 1.201979,0.042 0.280775,0.073 0.579732,0.068 0.85656,0.1573 0.04829,0.016 0.263588,0.1112 0.317453,0.135 0.292817,0.081 0.454381,0.2997 0.62394,0.5311 0.05611,0.085 0.104715,0.195 0.19923,0.247 0.01869,0.012 0.04553,0.028 0.06222,0.015 0.02184,-0.017 0.04577,-0.094 0.02102,-0.081 -0.601253,0.3122 -1.182838,0.661 -1.774258,0.9915 0.254824,-0.1727 0.407726,-0.4686 0.573688,-0.7222 0.473816,-0.7175 1.370316,-1.5512 2.241153,-1.3668 0.04577,0.011 0.201016,0.08 0.246774,0.1 0.31178,0.2529 0.221224,0.5131 0.03857,0.8155 -0.756427,1.0001 -1.985636,1.6066 -3.197885,1.8742 -0.609824,0.102 -1.229146,0.1482 -1.835675,0.2697 -0.894402,0.1557 -2.399819,1.1652 0.752146,-0.6289 -0.182186,0.1243 -0.30039,0.2906 -0.218727,0.5108 0.796855,0.868 -0.552134,0.9043 -1.686327,1.5578 -0.38209,-0.011 -0.756279,0.046 -1.133233,0.097 -0.341599,0.057 -0.676623,-0.024 -0.991043,-0.1549 -0.247591,-0.172 -0.534746,-0.2378 -0.815177,-0.3299 -0.664766,-0.693 1.090753,-1.3032 1.891593,-1.274 0,0 -1.715737,1.2588 -1.715737,1.2588 l 0,0 c -0.80462,0.1066 0.259504,-0.021 1.673066,-1.0322 0.04974,-0.035 -0.072,-0.099 -0.102354,-0.1522 -0.0032,0 0.01223,0 0.01834,0 0.274887,0.102 0.547917,0.2008 0.806426,0.3411 0.303927,0.099 0.60867,0.1379 0.926054,0.075 0.373866,-0.049 0.756602,-0.052 1.121902,-0.1417 -0.576429,0.3465 -1.167883,0.6693 -1.729288,1.0396 -0.02636,0.017 0.05134,0.04 0.0823,0.047 0.02727,0 -0.0479,-0.097 -0.117012,-0.1842 -0.02961,-0.037 -0.0567,-0.076 -0.08504,-0.1146 -0.11926,-0.2756 -0.109759,-0.5466 0.105287,-0.7742 1.027659,-0.6028 1.770797,-1.2381 2.892742,-1.4089 0.602992,-0.093 1.212495,-0.1456 1.810235,-0.2695 0.111787,-0.032 0.225485,-0.058 0.335375,-0.096 0.102709,-0.035 0.392949,-0.1831 0.301431,-0.1245 -2.891562,1.853 -1.482807,1.0071 -1.024344,0.4545 0.08777,-0.1155 0.356108,-0.3589 0.135271,-0.4694 -0.07508,-0.018 -0.108658,-0.038 -0.184319,-0.015 -0.03409,0.011 -0.126764,0.065 -0.09616,0.047 3.479711,-2.0837 1.905475,-1.3299 1.487603,-0.8101 -0.163195,0.2744 -0.350228,0.5343 -0.518536,0.8052 -1.07318,0.6042 -1.724868,1.6798 -2.32633,0.679 -0.148845,-0.2081 -0.301687,-0.3625 -0.557245,-0.4379 -0.360848,-0.1507 -0.747041,-0.1915 -1.130278,-0.2578 -0.383398,-0.048 -0.778477,-0.102 -1.142665,0.062 0.555477,-0.3265 1.114483,-0.6472 1.666431,-0.9796 0.04319,-0.026 -0.0964,0.033 -0.139041,0.06 -0.187085,0.1181 -0.211407,0.3228 -0.214648,0.5248 -0.0075,0.072 -0.0036,0.3789 -0.07592,0.4263 -0.649484,0.4251 -1.302124,1.2577 -2.125661,1.1291 -0.283896,-0.096 -0.535344,-0.2727 -0.833548,-0.3326 -0.213937,-0.043 -0.422615,-0.076 -0.637022,-0.013 -0.04524,0.014 -0.172426,0.076 -0.131937,0.052 0.559,-0.3342 1.126046,-0.655 1.689069,-0.9825 -0.111455,0.049 -0.237007,0.1009 -0.3209,0.195 -0.02006,0.023 -0.03582,0.049 -0.0468,0.077 -0.01248,0.032 0.0062,0.081 -0.02266,0.1 -0.617892,0.391 -1.260938,0.7407 -1.891407,1.1111 -0.185398,-0.1747 -0.421014,-0.2272 -0.67018,-0.2672 -0.520803,-0.1043 -1.046931,-0.1588 -1.578839,-0.1203 -0.598113,0.02 -1.196631,-0.013 -1.794897,0.012 -0.09614,0 -0.289874,0.011 -0.392245,0.039 -0.03967,0.011 -0.146172,0.077 -0.111225,0.055 0.570506,-0.3596 1.146006,-0.7112 1.718457,-1.0677 0.01828,-0.012 -0.0455,0.014 -0.05592,0.032 -0.01528,0.028 -0.0092,0.062 -0.01378,0.094 0.06412,0.3636 0.223848,0.706 0.269212,1.075 0,0 -1.880009,0.9973 -1.880009,0.9973 z"
       inkscape:connector-curvature="0" />
    <path
       style="fill:#333333;fill-opacity:1;stroke:none;stroke-width:0.2;stroke-linejoin:bevel;stroke-miterlimit:4;stroke-dasharray:none;stroke-dashoffset:0;stroke-opacity:1"
       id="path4323"
       d="m 24.9614,1028.412 c 0.36435,-0.068 0.73268,-0.024 1.099008,3e-4 0.32612,0.031 0.643801,0.039 0.96531,-0.023 0.697784,-0.3454 0.27716,-0.1396 -1.623045,0.9205 -0.02844,0.016 0.05718,-0.032 0.08169,-0.054 0.08088,-0.071 0.07186,-0.1699 0.07499,-0.2675 -0.03903,-0.25 -0.181015,-0.3757 -0.09151,-0.6374 0.02247,-0.033 0.04121,-0.069 0.06741,-0.099 0.05992,-0.069 0.125552,-0.11 0.204608,-0.1539 1.009179,-0.5669 1.410788,-1.1069 2.340871,-1.1423 0.431036,0.058 0.856687,0.1956 1.249298,0.3823 0.296062,0.1412 0.592332,0.2813 0.817998,0.5239 0.154588,0.2223 0.227817,0.4918 0.302861,0.75 0.06137,0.1546 0.105838,0.3471 0.304504,0.3165 0.506054,-0.4214 2.140957,-1.2265 -1.640095,0.9081 0,0 1.985825,-0.7748 1.985825,-0.7748 l 0,0 c -0.501255,0.2864 -1.313724,1.1935 -2.095403,1.0863 -0.231304,-0.099 -0.341604,-0.2889 -0.421068,-0.5202 -0.0606,-0.2254 -0.121611,-0.464 -0.24724,-0.661 -0.214324,-0.2126 -0.501643,-0.3257 -0.766549,-0.4626 -0.371652,-0.1626 -0.773192,-0.3059 -1.183778,-0.2878 -0.05882,0.011 -0.118692,0.019 -0.176458,0.035 -0.05758,0.016 -0.219742,0.093 -0.168586,0.062 2.929942,-1.7748 2.050013,-1.1404 1.37417,-0.8231 -0.03399,0.028 -0.08388,0.045 -0.101,0.085 -0.05817,0.1377 0.173638,0.2998 0.134824,0.4451 0.0083,0.1276 0.0321,0.2821 -0.0062,0.4073 -0.01224,0.04 -0.02404,0.088 -0.05973,0.11 -1.785141,1.0872 -1.208893,0.9658 -2.054935,1.1224 -0.328507,0.034 -0.657989,0 -0.986662,-0.017 -0.362657,-0.023 -0.725032,-0.039 -1.081907,0.048 0,0 1.700843,-1.2791 1.700843,-1.2791 z"
       inkscape:connector-curvature="0" />
    <path
       style="fill:#333333;fill-opacity:1;stroke:none;stroke-width:0.2;stroke-linejoin:bevel;stroke-miterlimit:4;stroke-dasharray:none;stroke-dashoffset:0;stroke-opacity:1"
       id="path4325"
       d="m 12.061946,1034.2637 c 0.465109,-1.0512 1.500437,-1.7792 2.666001,-1.9879 0.408253,0.052 0.656023,0.3078 0.810231,0.6703 0.02741,0.1359 0.04885,0.182 0.03115,0.3194 -0.006,0.046 -0.04894,0.2174 -0.09975,0.2488 -1.869954,1.156 -1.20229,1.2762 -2.057158,1.079 -0.03619,-0.013 -0.07523,-0.018 -0.108566,-0.038 -0.0377,-0.022 -0.27168,-0.2472 -0.179513,-0.3115 1.659864,-1.1573 1.170376,-1.0974 2.035659,-1.1634 0.447187,-0.072 0.857654,0.012 1.264442,0.1973 0.337476,0.1493 0.586176,0.4491 0.915309,0.6064 0.0232,0 0.05129,0.012 0.06961,-0.011 0.01971,-0.016 0.05051,-0.081 0.02854,-0.07 -0.604299,0.3336 -1.188169,0.7032 -1.789619,1.0419 -0.01576,0.011 0.02165,-0.03 0.02505,-0.048 0.01313,-0.069 -0.004,-0.1319 -0.01508,-0.1988 -0.05729,-0.2055 -0.09274,-0.416 -0.125207,-0.6266 0,0 1.870197,-0.9876 1.870197,-0.9876 l 0,0 c 0.0288,0.2049 0.06072,0.41 0.125606,0.6073 0.008,0.029 0.09949,0.3451 0.06467,0.3693 -1.036524,0.7209 -1.2637,1.4626 -2.035696,1.0764 -0.293665,-0.1996 -0.55659,-0.4479 -0.884883,-0.594 -0.391071,-0.15 -0.788497,-0.1889 -1.198075,-0.079 -0.771363,0.3436 0.257752,-0.1078 1.595064,-1.0111 0.02383,-0.016 -0.04733,-0.033 -0.07327,-0.046 -0.0056,0 0.156218,0.066 0.13411,0.03 0.714509,-0.2743 0.09899,-0.044 -1.623861,0.9903 -0.03019,0.018 0.06502,-0.029 0.09247,-0.052 0.09705,-0.078 0.106377,-0.1856 0.0893,-0.3007 -0.109128,-0.2833 -0.309382,-0.4798 -0.635364,-0.4134 -0.71094,0.3052 -0.429955,0.1923 1.481313,-0.907 0.06296,-0.037 -0.120679,0.082 -0.172882,0.1326 -0.1672,0.1617 -0.293606,0.3667 -0.370855,0.5848 0,0 -1.928939,0.8863 -1.928939,0.8863 z"
       inkscape:connector-curvature="0" />
    <path
       style="fill:#333333;fill-opacity:1;stroke:none;stroke-width:0.2;stroke-linejoin:bevel;stroke-miterlimit:4;stroke-dasharray:none;stroke-dashoffset:0;stroke-opacity:1"
       id="path4327"
       d="m 20.657753,1031.5541 c 0.01754,0.4554 -0.147003,0.8587 -0.398166,1.2291 -0.650142,0.7242 -1.743047,1.155 -2.503671,1.589 -0.04929,0.027 -0.199653,0.1077 -0.150505,0.079 0.57205,-0.33 1.146205,-0.6565 1.719309,-0.9848 -0.03448,0.073 -0.04926,-0.024 -0.03617,-0.02 0.09303,0.03 0.170371,0.095 0.256905,0.1407 0.25754,0.1345 0.163358,0.088 0.452963,0.197 0.543282,0.1797 1.088275,0.3517 1.621967,0.5595 0.07271,0.026 0.143976,0.057 0.218128,0.08 0.06112,0.018 0.235826,0.065 0.312555,0.031 0.03504,-0.016 0.110194,-0.1043 0.07645,-0.086 -1.738991,0.9487 -2.073587,1.5959 -1.720475,0.9401 -0.05531,-0.336 -0.278293,-0.6189 -0.415444,-0.9279 -0.06512,-0.1841 -0.120907,-0.5319 0.09522,-0.6572 0.644825,-0.3736 1.302749,-0.7242 1.954124,-1.0863 0.500615,-0.053 0.997834,-0.014 1.496311,0.037 0.103282,-0.029 0.201907,0.046 0.3036,0.038 0.01215,-10e-4 0.03224,-0.036 0.02202,-0.029 -0.604845,0.3918 -1.191834,0.8117 -1.807701,1.186 -0.02742,0.016 -0.236782,-0.066 -0.283196,-0.083 -0.342535,-0.1134 -0.706369,-0.1301 -0.994623,-0.3632 -0.05854,-0.1124 -0.109254,-0.3234 0.0337,-0.4117 1.204651,-0.7444 1.433513,-1.0226 2.412022,-1.2497 0.714759,-0.1031 1.443848,-0.054 2.163826,-0.039 0.499823,0.011 1.013579,-0.014 1.47804,0.1946 0.294068,0.1846 0.391277,0.4726 0.384414,0.8044 -0.04493,0.3367 -0.265633,0.6148 -0.433817,0.9016 -0.145508,0.2314 -0.28388,0.4688 -0.440976,0.6926 -1.176816,1.3579 -1.593291,1.2456 -2.676633,0.971 -0.398257,-0.078 -0.809452,-0.1616 -1.216076,-0.1189 -0.0011,2e-4 -0.28986,0.045 -0.296496,0.047 -0.03991,0.011 -0.149987,0.071 -0.113919,0.05 0.578883,-0.3245 1.157766,-0.6491 1.736649,-0.9736 -0.07348,0.034 -0.04034,0.029 -0.09582,0.031 -0.02766,-0.065 0.300715,-0.011 0.338729,-0.011 0,0 -1.726555,1.2313 -1.726555,1.2313 l 0,0 c -0.225528,-0.026 -0.431319,-0.057 -0.534217,-0.2871 -0.0058,-0.055 -0.03711,-0.1597 0.03346,-0.2019 1.098741,-0.6567 1.40394,-1.0953 2.363956,-1.1365 0.419716,0.013 0.836705,0.073 1.245529,0.1686 0.13535,0.031 0.233843,0.057 0.371087,0.073 0.04911,0.011 0.0987,0.011 0.148075,0.011 0.03589,0 0.136501,-0.039 0.105724,-0.021 -1.646683,0.9926 -2.393246,1.1521 -1.649213,0.9841 0.220558,-0.1608 0.296778,-0.445 0.47495,-0.6469 0.07897,-0.148 0.164256,-0.2933 0.251783,-0.4364 0.05377,-0.088 0.128288,-0.1628 0.176432,-0.2539 0.02027,-0.039 0.02727,-0.083 0.0409,-0.1236 0.02894,-0.2474 0.0025,-0.4574 -0.244989,-0.579 -0.449442,-0.1582 -0.933692,-0.1351 -1.403579,-0.1545 -0.714421,-0.018 -1.444391,-0.068 -2.145326,0.1 -0.08087,0.025 -0.163011,0.046 -0.242605,0.076 -0.06906,0.025 -0.265304,0.1248 -0.2028,0.086 2.625163,-1.6208 2.158908,-1.1641 1.463388,-0.9126 0.272673,0.1945 0.638887,0.1831 0.941693,0.3115 0.216441,0.064 0.347815,0.1009 0.334097,0.1124 -1.85659,1.5561 -1.040543,1.315 -2.027982,1.1805 -0.484219,-0.048 -0.983263,-0.088 -1.457149,0.049 0.566107,-0.332 1.136334,-0.657 1.698322,-0.9961 0.03134,-0.018 -0.07101,0.02 -0.104175,0.034 -0.155676,0.072 -0.17347,0.2124 -0.12758,0.3647 0.144905,0.3456 0.377144,0.6487 0.47538,1.0129 0.0052,0.054 0.059,0.1286 0.01552,0.1598 -0.438234,0.3144 -1.336344,1.3621 -2.148351,1.1401 -0.128319,-0.035 -0.275909,-0.096 -0.397957,-0.1442 -0.533604,-0.2052 -1.075793,-0.382 -1.618149,-0.5617 -0.260907,-0.1032 -0.795483,-0.2752 -0.906324,-0.5691 -0.0146,-0.039 -0.0013,-0.083 -0.0019,-0.1243 0.634196,-0.3774 1.266974,-0.7571 1.902591,-1.1322 0.04617,-0.028 0.188776,-0.102 0.142588,-0.075 -0.536682,0.3163 -1.075811,0.6284 -1.614235,0.9418 -0.06423,0.038 0.128171,-0.076 0.19164,-0.1135 0.239905,-0.1461 0.145925,-0.078 0.351629,-0.2695 0.27435,-0.2978 0.468107,-0.6753 0.434684,-1.0902 0,0 1.896479,-0.9664 1.896479,-0.9664 z"
       inkscape:connector-curvature="0" />
    <path
       style="fill:#333333;fill-opacity:1;stroke:none;stroke-width:0.2;stroke-linejoin:bevel;stroke-miterlimit:4;stroke-dasharray:none;stroke-dashoffset:0;stroke-opacity:1"
       id="path4329"
       d="m 29.989198,1032.5272 c 0.107603,0.3406 0.144191,0.6795 0.02573,1.0193 -0.07373,0.135 -0.166703,0.2842 -0.304897,0.3642 -1.263203,0.7303 -1.369144,1.114 -2.332514,1.1357 -0.333987,-0.056 -0.587801,-0.1489 -0.646602,-0.5092 0.127236,-0.7948 1.79898,-1.2095 1.998155,-1.3189 0.0994,-0.055 0.283918,-0.027 0.388419,-0.013 0.284139,0.1277 0.565788,0.2625 0.857565,0.3717 0.375179,0.1279 0.772657,0.1519 1.165393,0.1687 0.408969,0.013 0.818164,0.011 1.227238,0.011 0.754631,-0.1461 1.762613,-0.9508 -1.44898,0.9013 -0.01479,0.011 0.03731,0.011 0.05111,0 0.01664,-0.013 0.01876,-0.037 0.02814,-0.055 0.03426,-0.064 0.04644,-0.134 0.05704,-0.2044 0,0 1.918889,-0.9376 1.918889,-0.9376 l 0,0 c -0.01529,0.082 -0.02052,0.1648 -0.03675,0.2467 -0.0073,0.023 -0.01833,0.045 -0.02195,0.068 -0.0058,0.038 0.0263,0.094 -0.0062,0.1146 -0.987505,0.6156 -1.353007,1.0852 -2.250509,1.1116 -0.409366,0 -0.818975,0 -1.228015,-0.019 -0.410018,-0.025 -0.821638,-0.071 -1.207713,-0.2208 -0.270751,-0.1077 -0.540141,-0.2527 -0.827605,-0.3032 -0.09515,0.013 -0.131331,0.013 -0.226196,0.045 -0.0364,0.013 -0.138738,0.066 -0.105723,0.046 2.121398,-1.2687 2.310031,-1.2258 1.571568,-0.9642 -0.120984,0.1737 0.350567,0.2307 0.444056,0.2099 0.0509,-0.011 0.10264,-0.013 0.152699,-0.024 0.05208,-0.013 0.198406,-0.078 0.152738,-0.05 -0.542072,0.3334 -1.099273,0.6416 -1.645335,0.9685 -0.140671,0.084 0.492404,-0.265 0.347799,-0.2556 0.178081,-0.2888 0.152519,-0.5592 0.03896,-0.8722 0,0 1.863424,-1.0263 1.863424,-1.0263 z"
       inkscape:connector-curvature="0" />
  </g>
</svg>
